<svg xmlns="http://www.w3.org/2000/svg" viewBox="0 0 38.508 37.762"><title>Asset 1</title><g opacity="0.5"><path d="M25.866,0c.415.028.83.068,1.246.081a18.9,18.9,0,0,1,4.951.651,2.63,2.63,0,0,1,1.911,1.683C34.4,3.625,34.926,4.8,35.38,6a.464.464,0,0,0,.543.369h0a6.845,6.845,0,0,1,.758,0,1.442,1.442,0,0,1,1.36.9,8.358,8.358,0,0,1,.4,1.118.805.805,0,0,1-.823,1.11H36.586c.152.386.307.709.406,1.048a4.648,4.648,0,0,1,.261,1.217c.024,2.466.013,4.933.011,7.4a1.011,1.011,0,0,1-.951,1.069.985.985,0,0,1-.32-.032.382.382,0,0,1-.207-.2,7.853,7.853,0,0,1-.325-.762,3.824,3.824,0,0,0-2.509-2.359,15.341,15.341,0,0,0-4.091-.783c-.119-.008-.238-.013-.4-.022.051-.194.111-.361.139-.533.2-1.223-.651-3.839-2.528-4.288-.058-.014-.116-.055-.172-.05-.666.053-.873-.373-1.049-.913-.211-.648-.5-1.269-.781-1.955a38.806,38.806,0,0,0,9.83-.91c-.162-.519-.276-1.01-.466-1.469-.408-.987-.837-1.966-1.3-2.928a.966.966,0,0,0-.579-.441,15.688,15.688,0,0,0-2.7-.549c-1.882-.118-3.772-.154-5.658-.14a16.677,16.677,0,0,0-4.181.46,1.752,1.752,0,0,0-1.338,1.075q-.33.75-.733,1.465l-1.86-.089c.078-.212.141-.4.217-.589.245-.6.516-1.191.736-1.8A2.5,2.5,0,0,1,17.651.894,12.082,12.082,0,0,1,21.31.165c.853-.037,1.706-.059,2.559-.094A1.28,1.28,0,0,0,24.135,0Zm5.977,14.319V14.3a6.157,6.157,0,0,0,.792-.006,15.442,15.442,0,0,0,1.654-.283.706.706,0,0,0,.558-.713c0-.42.012-.841-.017-1.259-.032-.461-.283-.737-.739-.71a4.74,4.74,0,0,0-1.462.278c-.853.342-1.678.761-2.5,1.185a.755.755,0,0,0-.384.922.727.727,0,0,0,.729.533c.455.037.911.053,1.366.072Z" fill="#a6b1c2"/><path d="M36.582,27.062c.161.4.323.732.432,1.083a3.831,3.831,0,0,1,.236,1.078c.02,2.515.012,5.03.01,7.545a.931.931,0,0,1-.874.985c-.03,0-.061,0-.091,0q-1.445.012-2.888,0a.929.929,0,0,1-.973-.883.722.722,0,0,1,0-.093c-.006-.349-.017-.7,0-1.047.017-.292-.1-.365-.376-.363-1.877.01-3.755,0-5.632,0-2.792,0-5.584.006-8.376-.008-.347,0-.471.093-.44.442a8.791,8.791,0,0,1,0,.974.951.951,0,0,1-.929.972h-.06c-.915.007-1.829,0-2.744,0a1,1,0,0,1-1.13-.864,1.017,1.017,0,0,1,0-.27c0-1.3-.008-2.6,0-3.9.008-1.251,0-2.5.063-3.751a5.436,5.436,0,0,1,.4-1.294c.062-.19.13-.379.212-.616H12.368a.779.779,0,0,1-.846-.706.769.769,0,0,1,.03-.294A6.438,6.438,0,0,1,12.03,24.7a1.4,1.4,0,0,1,1.285-.791c.382-.009.857.1,1.118-.082s.312-.673.454-1.028c.39-.969.786-1.936,1.166-2.909a2.4,2.4,0,0,1,1.462-1.4,11.645,11.645,0,0,1,3.686-.778c1.3-.063,2.6-.156,3.892-.119q2.736.078,5.464.345a9.4,9.4,0,0,1,2.077.568,1.953,1.953,0,0,1,1.218,1.2c.5,1.286,1.028,2.563,1.525,3.851.1.265.227.389.521.357a5.991,5.991,0,0,1,.758,0,1.451,1.451,0,0,1,1.4.951,10.342,10.342,0,0,1,.372,1.052.822.822,0,0,1-.86,1.145C37.265,27.063,36.956,27.062,36.582,27.062ZM16.1,25.019a45.066,45.066,0,0,0,17.782,0,4.327,4.327,0,0,0-.115-.448c-.475-1.192-.976-2.373-1.421-3.576a1.625,1.625,0,0,0-1.227-1.035,17.233,17.233,0,0,0-4.5-.521c-1.838-.018-3.68.028-5.515.136a13.671,13.671,0,0,0-2.535.493,1.179,1.179,0,0,0-.69.526c-.449.874-.852,1.774-1.227,2.683C16.437,23.808,16.305,24.371,16.1,25.019ZM18.046,31.9c.626-.043,1.13-.059,1.629-.118a.682.682,0,0,0,.626-.519.753.753,0,0,0-.248-.813,1.6,1.6,0,0,0-.346-.255c-.917-.414-1.828-.843-2.764-1.208a2.854,2.854,0,0,0-1.06-.107.625.625,0,0,0-.64.573,7.6,7.6,0,0,0-.057,1c-.007.815.206,1.112,1.015,1.254C16.841,31.819,17.5,31.845,18.046,31.9Zm13.826-.01.012.047c.746-.1,1.5-.151,2.234-.306.569-.12.733-.414.738-.99v-.612c-.005-1-.328-1.288-1.331-1.153a2.667,2.667,0,0,0-.689.193c-.771.329-1.536.672-2.3,1.021a2.667,2.667,0,0,0-.484.309.774.774,0,0,0-.3.858.683.683,0,0,0,.653.528c.481.055.973.072,1.463.105Z" fill="#a6b1c2"/><path d="M1.921,15.876c-.374,0-.7-.027-1.015.005a.813.813,0,0,1-.9-.712.822.822,0,0,1,.06-.413c.121-.365.235-.733.387-1.085a1.512,1.512,0,0,1,1.416-.942c.368-.019.83.1,1.078-.085s.292-.658.43-1c.4-.992.805-1.98,1.2-2.974A2.218,2.218,0,0,1,5.87,7.389,9.694,9.694,0,0,1,9.183,6.6c2.2-.073,4.4-.138,6.6-.123a16.1,16.1,0,0,1,4.871.674A2.6,2.6,0,0,1,22.465,8.8c.442,1.218.958,2.409,1.422,3.62.094.244.21.339.467.317a6.845,6.845,0,0,1,.758,0,1.548,1.548,0,0,1,1.468,1.028c.137.371.265.746.371,1.127A.819.819,0,0,1,26.14,15.9c-2.145.079-4.291.189-6.431.36a9.414,9.414,0,0,0-3.266.958,3.6,3.6,0,0,0-1.852,1.934c-.392.955-.772,1.915-1.174,2.866a.487.487,0,0,1-.3.275A3.155,3.155,0,0,0,10.6,23.936a.526.526,0,0,1-.537.306c-1.167-.013-2.334-.006-3.5-.006h-.44v1.216c0,.744-.34,1.132-1.083,1.158-.9.03-1.805.03-2.706,0C1.59,26.586,1.26,26.2,1.26,25.449c0-2.226.011-4.452-.006-6.677a4.477,4.477,0,0,1,.422-2.2A5.523,5.523,0,0,0,1.921,15.876Zm2.63-2.169.122.158a44.645,44.645,0,0,0,17.683-.012c-.03-.169-.038-.239-.056-.307A22.67,22.67,0,0,0,20.779,9.7a1.467,1.467,0,0,0-.961-.837c-.161-.049-.32-.1-.483-.142a20.334,20.334,0,0,0-5.047-.468c-1.907.009-3.815.143-5.721.265a2.706,2.706,0,0,0-2.711,1.847c-.383,1.129-.865,2.228-1.3,3.34ZM6.6,20.728l.006-.07H7.939a1.127,1.127,0,0,0,.281-.06.731.731,0,0,0,.339-1.283,1.839,1.839,0,0,0-.494-.354c-.77-.362-1.537-.734-2.329-1.043a3.841,3.841,0,0,0-1.224-.226.742.742,0,0,0-.826.647.732.732,0,0,0,0,.148c-.02.287.008.577-.012.864-.04.572.026.978.934,1.166a19.4,19.4,0,0,0,2,.212Z" fill="#a6b1c2"/></g></svg>