<svg xmlns="http://www.w3.org/2000/svg" viewBox="0 0 64 64"><defs><style>.a{fill:#ff5722;}</style></defs><title>icon_location_pin_05</title><path class="a" d="M24.863,55.305q-4.1-5.907-5.414-7.957a23.119,23.119,0,0,1-2.543-4.963,14.95,14.95,0,0,1-.656-4.635,15.2,15.2,0,0,1,2.133-7.875,16.056,16.056,0,0,1,5.742-5.742,15.6,15.6,0,0,1,15.75,0,16.056,16.056,0,0,1,5.742,5.742A15.2,15.2,0,0,1,47.75,37.75a14.95,14.95,0,0,1-.656,4.635,23.119,23.119,0,0,1-2.543,4.963q-1.312,2.051-5.414,7.957l-5.5,7.875a2.052,2.052,0,0,1-3.282,0Q28.226,60.063,24.863,55.305Zm11.772-12.92A6.562,6.562,0,0,0,32,31.188a6.554,6.554,0,0,0-4.635,11.2,6.538,6.538,0,0,0,9.27,0Z"/></svg>