<?xml version="1.0" encoding="utf-8"?>
<!-- Generator: Adobe Illustrator 23.0.6, SVG Export Plug-In . SVG Version: 6.00 Build 0)  -->
<svg version="1.1" id="Layer_1" xmlns="http://www.w3.org/2000/svg" xmlns:xlink="http://www.w3.org/1999/xlink" x="0px" y="0px"
	 viewBox="0 0 64 64" style="enable-background:new 0 0 64 64;" xml:space="preserve">
<style type="text/css">
	.st0{fill:none;stroke:#000000;stroke-width:2;stroke-miterlimit:10;}
	.st1{fill:none;stroke:#000000;stroke-width:2;stroke-linejoin:round;}
</style>
<title>icon_bus</title>
<line class="st0" x1="24" y1="11" x2="40" y2="11"/>
<path class="st0" d="M12,36.3l1.9,0.6c1.4,0.5,2.8,0.7,4.2,0.7h27.7c1.4,0,2.9-0.2,4.2-0.7l1.9-0.6"/>
<path class="st0" d="M12,19l1.3-0.9c1.8-1.2,3.8-1.8,5.9-1.8h25.5c2.1,0,4.2,0.6,5.9,1.8L52,19"/>
<path class="st0" d="M12,49.7V11c0-2.9,2.4-5.3,5.3-5.3h29.3c2.9,0,5.3,2.4,5.3,5.3v38.7c0,1.5-1.2,2.7-2.7,2.7H14.7
	C13.2,52.3,12,51.1,12,49.7z"/>
<path class="st0" d="M14.7,52.3v4c0,0.7,0.6,1.3,1.3,1.3c0,0,0,0,0,0h5.3c0.7,0,1.3-0.6,1.3-1.3v-4"/>
<path class="st0" d="M41.3,52.3v4c0,0.7,0.6,1.3,1.3,1.3H48c0.7,0,1.3-0.6,1.3-1.3c0,0,0,0,0,0v-4"/>
<line class="st0" x1="32" y1="16.3" x2="32" y2="36.3"/>
<path class="st0" d="M46.7,43v1.3c0,1.5-1.2,2.7-2.7,2.7h-1.3"/>
<path class="st0" d="M17.3,43v1.3c0,1.5,1.2,2.7,2.7,2.7h1.3"/>
<path class="st1" d="M54.7,23H56c0.7,0,1.3,0.6,1.3,1.3l0,0V31c0,0.7-0.6,1.3-1.3,1.3l0,0h-1.3"/>
<path class="st1" d="M9.3,23H8c-0.7,0-1.3,0.6-1.3,1.3l0,0V31c0,0.7,0.6,1.3,1.3,1.3h0h1.3"/>
<line class="st0" x1="26.7" y1="47" x2="37.3" y2="47"/>
</svg>
