<svg xmlns="http://www.w3.org/2000/svg" viewBox="0 0 30 30"><title>icon_reports</title><g id="b3c3a1b0-0ca1-4a7d-a840-bca804c1de1e" data-name="Layer 2"><g id="b209f4ee-4496-4fa7-aaef-cd43560b7244" data-name="Layer 1"><g id="b85bffdb-de63-47e6-89d0-9a4f342ec319" data-name="Group 144"><g id="a879cbf6-0b1c-4dd8-a151-5cffd0333c03" data-name="Group 143"><path id="a64d83f0-53c0-4e27-a441-9a972ccf50f2" data-name="Path 393" d="M27.46,0A2.54,2.54,0,1,0,30,2.54,2.53,2.53,0,0,0,27.46,0Zm0,3.77A1.23,1.23,0,1,1,28.7,2.54a1.23,1.23,0,0,1-1.24,1.23Z" style="fill:#a6b1c3"/></g></g><g id="b8ae08b3-96c2-4251-9bc9-c16184fb2788" data-name="Group 146"><g id="b4a338b3-b04d-4b08-bb1a-ad560bb69c25" data-name="Group 145"><path id="e523da08-0995-4d0c-9fd7-4b56a702150f" data-name="Path 394" d="M2.54,14.33a2.54,2.54,0,1,0,2.54,2.54,2.54,2.54,0,0,0-2.54-2.54Zm0,3.77a1.24,1.24,0,1,1,1.23-1.23h0A1.23,1.23,0,0,1,2.54,18.1Z" style="fill:#a6b1c3"/></g></g><g id="a5c3e1b3-ad8d-4f46-be2d-7c0d32a0939e" data-name="Group 148"><g id="ac664aa1-1c1d-4477-b505-8b6d1851f5aa" data-name="Group 147"><path id="b3d94716-373b-49c3-af72-c79634ca5f75" data-name="Path 395" d="M10,6.86A2.54,2.54,0,1,0,12.55,9.4,2.54,2.54,0,0,0,10,6.86Zm0,3.77A1.24,1.24,0,1,1,11.25,9.4,1.23,1.23,0,0,1,10,10.63Z" style="fill:#a6b1c3"/></g></g><g id="a7b64a98-6556-4abc-8802-5a8b4edeb0ab" data-name="Group 150"><g id="fd923bbe-c326-44c3-b69d-2344933c5f93" data-name="Group 149"><path id="a1abd25e-bd16-4d1a-8c07-417843736e33" data-name="Path 396" d="M15.3,12.15a2.54,2.54,0,1,0,2.54,2.54,2.54,2.54,0,0,0-2.54-2.54Zm0,3.78a1.24,1.24,0,1,1,1.24-1.24h0a1.24,1.24,0,0,1-1.24,1.24Z" style="fill:#a6b1c3"/></g></g><g id="e6d2c500-3ce0-443e-b9b7-d7925dc850e9" data-name="Group 152"><g id="b23a19a9-68a7-4dbe-bf43-74c14b59b8c2" data-name="Group 151"><rect id="ae0017c3-b090-44f6-94f3-13d0e1a24678" data-name="Rectangle 152" x="14.54" y="8.01" width="13.58" height="1.3" transform="translate(0.13 17.64) rotate(-45.06)" style="fill:#a6b1c3"/></g></g><g id="edb5754b-8e2d-4f43-a599-9c423cb60e20" data-name="Group 154"><g id="ba900af1-4726-46e8-81b9-7f21469a73e7" data-name="Group 153"><rect id="a463c15e-e628-4598-bcd7-94043b5c2ce1" data-name="Rectangle 153" x="12.01" y="10.14" width="1.3" height="3.79" transform="translate(-4.8 12.51) rotate(-45.08)" style="fill:#a6b1c3"/></g></g><g id="a5ab27da-b51f-4cd7-81c3-36e06a63989e" data-name="Group 156"><g id="ab26e29f-ceaa-4a90-ac9e-1b30d5d777d7" data-name="Group 155"><rect id="a57a8265-30f3-4b8d-891f-625490a251a2" data-name="Rectangle 154" x="2.87" y="12.48" width="6.89" height="1.3" transform="translate(-7.43 8.31) rotate(-45)" style="fill:#a6b1c3"/></g></g><g id="a335a37b-2c13-4b48-b0c5-789f03bf5e9e" data-name="Group 158"><g id="e5bd4eab-f523-473f-b3f8-106de928cedf" data-name="Group 157"><rect id="b8ceeae1-fffe-431a-8a21-deb56e32673e" data-name="Rectangle 155" x="0.02" y="28.7" width="29.96" height="1.3" style="fill:#a6b1c3"/></g></g><g id="a405d741-7125-45c2-8d9e-dbb7c0177f87" data-name="Group 160"><g id="a6f55a63-7af6-449a-b62a-4e9004923282" data-name="Group 159"><rect id="b62cda48-7813-4e29-bcec-b2e3a026e05b" data-name="Rectangle 156" x="26.81" y="10.47" width="1.3" height="18.87" style="fill:#a6b1c3"/></g></g><g id="ba0d58bc-0b22-420e-ab4f-749bcb5a1f87" data-name="Group 162"><g id="edfa9a46-41a1-4f99-a9b0-deed13929cd2" data-name="Group 161"><rect id="f58223fb-e3af-49b7-9e8e-323fd9f22ace" data-name="Rectangle 157" x="14.98" y="19.92" width="1.3" height="9.43" style="fill:#a6b1c3"/></g></g><g id="bb3350a0-ad0b-47e4-a826-fb24dcb17b02" data-name="Group 164"><g id="a69d3d2b-36cc-4db6-b667-ce853c25e9aa" data-name="Group 163"><rect id="a2f9e809-34b8-4e73-a204-dfffd8dbe339" data-name="Rectangle 158" x="1.89" y="21.8" width="1.3" height="7.55" style="fill:#a6b1c3"/></g></g><g id="fb6bcc58-0fdd-410f-af19-2fd7473e047d" data-name="Group 166"><g id="b1a985b5-1d2a-40d0-8b37-89e45171f321" data-name="Group 165"><rect id="ef35e995-03ea-4813-bb79-41caf168b4f1" data-name="Rectangle 159" x="9.35" y="16.13" width="1.3" height="13.22" style="fill:#a6b1c3"/></g></g></g></g></svg>