<svg xmlns="http://www.w3.org/2000/svg" width="22" height="22" viewBox="0 0 22 22">
  <defs>
    <style>
      .cls-1 {
        fill: #836a27;
      }
    </style>
  </defs>
  <path id="Path_3" data-name="Path 3" class="cls-1" d="M11,0A11,11,0,1,0,22,11,11,11,0,0,0,11,0Zm0,18.022A1.438,1.438,0,0,1,9.552,16.5,1.439,1.439,0,0,1,11,14.978,1.412,1.412,0,0,1,12.448,16.5,1.425,1.425,0,0,1,11,18.022Zm.57-5.811c-.219.747-.909.76-1.139,0A27.541,27.541,0,0,1,9.224,5.847c0-2.851,3.567-2.865,3.567,0A28.192,28.192,0,0,1,11.57,12.211Z"/>
</svg>
