<svg id="Group_7154" data-name="Group 7154" xmlns="http://www.w3.org/2000/svg" width="28" height="28" viewBox="0 0 28 28">
  <g id="Group_6765" data-name="Group 6765">
    <path id="Path_1059" data-name="Path 1059" d="M14,0A14,14,0,1,1,0,14,14,14,0,0,1,14,0Z" fill="#a6b1c2"/>
    <path id="Path_4747" data-name="Path 4747" d="M140.044,34.793a4.217,4.217,0,0,0-.351,8.42v6.755a.351.351,0,1,0,.7,0V43.215a4.147,4.147,0,0,0,2.624-1.2,4.228,4.228,0,0,0-2.975-7.222ZM138.8,37.617a2.471,2.471,0,0,0-.35,2.313.351.351,0,1,1-.662.235,3.179,3.179,0,0,1,.455-2.976.351.351,0,1,1,.556.428Z" transform="translate(-126.105 -28.17)" fill="#fff"/>
  </g>
</svg>
