<svg xmlns="http://www.w3.org/2000/svg" viewBox="0 0 24.97 25"><title>Asset 1</title><g id="ab443902-a971-4f03-a3c0-ed70c0f09e68" data-name="Layer 2"><g id="b8bb68c3-d233-438d-a128-71bf1586e697" data-name="Layer 1"><path d="M23.651,25H6.464l-.3-.095a1.938,1.938,0,0,1-1.461-1.983q0-1.033,0-2.066h.683c4.785,0,9.57-.011,14.355.01a1.928,1.928,0,0,0,1.919-1.913c-.021-1.659-.006-3.32-.006-4.98a1.805,1.805,0,0,0-1.913-1.911H5.094c-.13,0-.26,0-.39-.006q0-5.068,0-10.138A1.746,1.746,0,0,1,5.288.6,2.707,2.707,0,0,1,6.464,0H18.671a.083.083,0,0,1,0,.035.513.513,0,0,0-.043.308c0,1.113,0,2.227-.005,3.34a1.705,1.705,0,0,0,.288.963,2.676,2.676,0,0,0,.557.61A2.651,2.651,0,0,0,21.07,6c1.3.028,2.6,0,3.9,0v17.48A1.722,1.722,0,0,1,23.651,25Z" fill="#e2e5e7"/><path d="M18.666.035,22.62,3.766q1.135,1.069,2.269,2.141a.55.55,0,0,0,.081.05v.049c-1.3,0-2.6.024-3.9,0a2.651,2.651,0,0,1-1.607-.746,2.676,2.676,0,0,1-.557-.61,1.705,1.705,0,0,1-.288-.963c.01-1.113,0-2.227.005-3.34A.513.513,0,0,1,18.666.035Z" fill="#b3b9bf"/><path d="M21.655,13.972a1.805,1.805,0,0,0-1.913-1.911H5.094c-.13,0-.26,0-.39-.006q-1.392,0-2.783.006a2.05,2.05,0,0,0-1.655.819A2.135,2.135,0,0,0,0,14.264c0,.575.008,1.15.008,1.724v2.66a2.612,2.612,0,0,0,.364,1.443,1.767,1.767,0,0,0,1.461.758c.957.006,1.913,0,2.869.007h.683c4.785,0,9.57-.011,14.355.01a1.928,1.928,0,0,0,1.919-1.913C21.64,17.293,21.655,15.632,21.655,13.972Z" fill="#f15944"/><path d="M5.093,18.646a.409.409,0,0,1-.112-.3V14.607a.383.383,0,0,1,.105-.288.4.4,0,0,1,.291-.1H6.948a1.622,1.622,0,0,1,1.124.361,1.289,1.289,0,0,1,.4,1.012,1.3,1.3,0,0,1-.4,1.016,1.619,1.619,0,0,1-1.124.364H5.805v1.373a.386.386,0,0,1-.416.415A.4.4,0,0,1,5.093,18.646Zm1.752-2.309q.851,0,.85-.741c0-.493-.283-.741-.85-.741H5.805v1.482Z" fill="#fff"/><path d="M9.3,18.617A.382.382,0,0,1,9.2,18.33V14.607a.383.383,0,0,1,.105-.288.4.4,0,0,1,.291-.1h1.265a2.36,2.36,0,0,1,1.714.591,2.2,2.2,0,0,1,.61,1.657,2.209,2.209,0,0,1-.61,1.664,2.364,2.364,0,0,1-1.714.59H9.592A.4.4,0,0,1,9.3,18.617Zm1.5-.568a1.386,1.386,0,0,0,1.552-1.584,1.383,1.383,0,0,0-1.552-1.577H10.02v3.161Z" fill="#fff"/><path d="M14.123,18.643a.411.411,0,0,1-.112-.3V14.607a.383.383,0,0,1,.105-.288.4.4,0,0,1,.291-.1h2.242c.259,0,.389.11.389.332s-.13.326-.389.326H14.822V16.1h1.7q.39,0,.39.332t-.39.326h-1.7v1.584a.422.422,0,0,1-.108.3.389.389,0,0,1-.294.115A.4.4,0,0,1,14.123,18.643Z" fill="#fff"/></g></g></svg>