<?xml version="1.0" encoding="utf-8"?>
<!-- Generator: Adobe Illustrator 24.0.0, SVG Export Plug-In . SVG Version: 6.00 Build 0)  -->
<svg version="1.1" id="Layer_1" xmlns="http://www.w3.org/2000/svg" xmlns:xlink="http://www.w3.org/1999/xlink" x="0px" y="0px"
	 viewBox="0 0 35 45.5" style="enable-background:new 0 0 35 45.5;" xml:space="preserve">
<style type="text/css">
	.st0{fill:#A6B1C3;}
</style>
<path class="st0" d="M23.9,0.6c0,3.7,0,7.3,0,11c0,2.8,0,5.6,0,8.5c0,0.4,0.1,0.5,0.5,0.5c2,0,3.9,0,5.9,0h0.5
	c-0.6,0.8-1.1,1.5-1.6,2.2c-3.9,5.2-7.7,10.5-11.6,15.7c-0.1,0.1-0.1,0.2-0.2,0.3c-0.6-0.6-1.1-1.3-1.6-2.1C12,31.3,8.1,26,4.2,20.7
	c0,0-0.1-0.1,0-0.2H5c1.8,0,3.7,0,5.5,0c0.4,0,0.5-0.1,0.5-0.5c0-6.3,0-12.6,0-19c0-0.4,0.1-0.6,0.5-0.6c4,0,7.9,0,11.9,0
	C23.6,0.5,23.8,0.5,23.9,0.6z M17.4,40.3c0.2,0,0.4,0,0.5,0c5.5,0,11,0,16.5,0c0.4,0,0.5,0.1,0.5,0.5c0,1.6,0,3.1,0,4.7
	c-4.5,0-9,0-13.5,0c-7,0-13.9,0-20.9,0C0.1,45.5,0,45.4,0,45c0-1.4,0-2.8,0-4.2c0-0.4,0.1-0.5,0.5-0.5c5.5,0,10.9,0,16.4,0
	C17.1,40.3,17.3,40.3,17.4,40.3z"/>
</svg>
