<svg xmlns="http://www.w3.org/2000/svg" viewBox="0 0 24.97 25"><title>Asset 2</title><g id="a60681e4-ed46-4a43-b0ae-8b24fa2e08f6" data-name="Layer 2"><g id="afcc0b86-81b6-4dd2-9a1f-0b2b58b242cf" data-name="Layer 1"><path d="M23.651,25H6.464l-.3-.095a1.938,1.938,0,0,1-1.461-1.983q0-1.033,0-2.066h.683c4.785,0,9.57-.011,14.355.01a1.928,1.928,0,0,0,1.919-1.913c-.021-1.659-.006-3.32-.006-4.98a1.805,1.805,0,0,0-1.913-1.911H5.094c-.13,0-.26,0-.39-.006q0-5.068,0-10.138A1.746,1.746,0,0,1,5.288.6,2.707,2.707,0,0,1,6.464,0H18.671a.083.083,0,0,1,0,.035.513.513,0,0,0-.043.308c0,1.113,0,2.227-.005,3.34a1.705,1.705,0,0,0,.288.963,2.676,2.676,0,0,0,.557.61A2.651,2.651,0,0,0,21.07,6c1.3.028,2.6,0,3.9,0v17.48A1.722,1.722,0,0,1,23.651,25Z" fill="#e2e5e7"/><path d="M18.666.035,22.62,3.766q1.135,1.069,2.269,2.141a.55.55,0,0,0,.081.05v.049c-1.3,0-2.6.024-3.9,0a2.651,2.651,0,0,1-1.607-.746,2.676,2.676,0,0,1-.557-.61,1.705,1.705,0,0,1-.288-.963c.01-1.113,0-2.227.005-3.34A.513.513,0,0,1,18.666.035Z" fill="#b3b9bf"/><path d="M21.655,13.972a1.805,1.805,0,0,0-1.913-1.911H5.094c-.13,0-.26,0-.39-.006q-1.392,0-2.783.006a2.05,2.05,0,0,0-1.655.819A2.135,2.135,0,0,0,0,14.264c0,.575.008,1.15.008,1.724v2.66a2.612,2.612,0,0,0,.364,1.443,1.767,1.767,0,0,0,1.461.758c.957.006,1.913,0,2.869.007h.683c4.785,0,9.57-.011,14.355.01a1.928,1.928,0,0,0,1.919-1.913C21.64,17.293,21.655,15.632,21.655,13.972Z" fill="#86be5c"/><path d="M9.083,18.4a.364.364,0,0,1-.119.269.38.38,0,0,1-.272.116.364.364,0,0,1-.282-.141l-1.3-1.617L5.8,18.646a.354.354,0,0,1-.276.134.388.388,0,0,1-.273-.112.353.353,0,0,1-.118-.266.376.376,0,0,1,.1-.244l1.4-1.706-1.34-1.635a.346.346,0,0,1-.1-.244.356.356,0,0,1,.115-.266.375.375,0,0,1,.27-.113.37.37,0,0,1,.282.141l1.25,1.546,1.251-1.546a.35.35,0,0,1,.276-.141.385.385,0,0,1,.272.113.353.353,0,0,1,.119.266.346.346,0,0,1-.1.244L7.588,16.452,8.98,18.158A.381.381,0,0,1,9.083,18.4Z" fill="#fff"/><path d="M9.826,18.646a.385.385,0,0,1-.1-.283V14.605a.387.387,0,0,1,.41-.411.411.411,0,0,1,.3.113.4.4,0,0,1,.112.3v3.463h1.8c.257,0,.385.114.385.34s-.128.34-.385.34H10.115A.393.393,0,0,1,9.826,18.646Z" fill="#fff"/><path d="M13.832,18.674a2.037,2.037,0,0,1-.715-.356.358.358,0,0,1-.148-.308.362.362,0,0,1,.08-.233.237.237,0,0,1,.189-.1.516.516,0,0,1,.263.09,1.958,1.958,0,0,0,.578.289,2.325,2.325,0,0,0,.667.089,1.314,1.314,0,0,0,.718-.163.534.534,0,0,0,.25-.478.409.409,0,0,0-.234-.375,3.081,3.081,0,0,0-.779-.253,4.634,4.634,0,0,1-.917-.283,1.3,1.3,0,0,1-.533-.41,1.069,1.069,0,0,1-.179-.635,1.192,1.192,0,0,1,.225-.712,1.475,1.475,0,0,1,.625-.491,2.482,2.482,0,0,1,2.395.311.5.5,0,0,1,.119.138.373.373,0,0,1,.035.17.357.357,0,0,1-.08.234.236.236,0,0,1-.189.1.376.376,0,0,1-.119-.019,1.025,1.025,0,0,1-.144-.071,2.168,2.168,0,0,0-.51-.286,1.756,1.756,0,0,0-.606-.092,1.187,1.187,0,0,0-.69.176.563.563,0,0,0-.253.49.45.45,0,0,0,.224.4,2.633,2.633,0,0,0,.764.264,5.112,5.112,0,0,1,.927.285,1.37,1.37,0,0,1,.545.4.962.962,0,0,1,.189.609,1.16,1.16,0,0,1-.222.7,1.433,1.433,0,0,1-.622.475,2.344,2.344,0,0,1-.92.17A3.227,3.227,0,0,1,13.832,18.674Z" fill="#fff"/></g></g></svg>