<svg xmlns="http://www.w3.org/2000/svg" viewBox="0 0 64 64"><defs><style>.a,.b,.c{fill:none;stroke:#000;stroke-width:2px;}.a,.b{stroke-linejoin:round;}.b{stroke-linecap:round;}.c{stroke-miterlimit:10;}</style></defs><title>icon_sailboat</title><line class="a" x1="32" y1="58.667" x2="32" y2="36"/><line class="b" x1="32" y1="38.667" x2="32" y2="1.333"/><path class="c" d="M32,46.667s8.812-2.81,14.667-9.334c-1.8-12.885-8.394-17.8-14.667-36"/><path class="c" d="M21.585,52.838C23.2,49.6,32,30.887,32,9.333"/><path class="a" d="M0,62.667a11.246,11.246,0,0,0,8-3.334,11.266,11.266,0,0,0,16,0,11.266,11.266,0,0,0,16,0,11.266,11.266,0,0,0,16,0,11.246,11.246,0,0,0,8,3.334"/><path class="c" d="M43.778,57.966a12.992,12.992,0,0,0,.887-5.189C36.415,53.271,32,50.667,32,50.667s-4.408,2.6-12.645,2.11a12.982,12.982,0,0,0,.9,5.223"/></svg>