<svg xmlns="http://www.w3.org/2000/svg" viewBox="0 0 19.013 19.007"><defs><style>.a{fill:#4a484a;}</style></defs><title>Asset 63</title><path class="a" d="M18.893,7.549a5.854,5.854,0,0,0-1.948-3.3,5.027,5.027,0,0,0-4.3-1.149A5.125,5.125,0,0,0,9.6,4.929,5.975,5.975,0,0,0,8.217,8.243,4.807,4.807,0,0,0,8.35,9.959a13.222,13.222,0,0,0,1.182,2.856,43.338,43.338,0,0,0,3.331,5.217c.131.181.267.359.406.543l.326.432.124-.142a1.425,1.425,0,0,0,.127-.166c.959-1.251,1.866-2.563,2.694-3.9a24.668,24.668,0,0,0,1.982-3.781A5.689,5.689,0,0,0,18.893,7.549Zm-1.509,3.039a21.978,21.978,0,0,1-1.978,3.728c-.406.632-.837,1.263-1.255,1.873-.181.265-.362.53-.543.8l-.114-.152a41.578,41.578,0,0,1-2.843-4.494,15.432,15.432,0,0,1-1.02-2.3,4.326,4.326,0,0,1,.431-3.659,4.038,4.038,0,0,1,2.355-1.954,3.736,3.736,0,0,1,3.558.62,4.6,4.6,0,0,1,1.777,3.025A4.528,4.528,0,0,1,17.384,10.588Zm-3.767-4.36H13.6a2.485,2.485,0,1,0,.019,0Zm-.012,3.79v0h-.017a2.137,2.137,0,1,1,.017,0Z"/><path class="a" d="M6.9,2.838A3.672,3.672,0,0,0,5.684.779,3.145,3.145,0,0,0,3,.061,3.209,3.209,0,0,0,1.09,1.2,3.731,3.731,0,0,0,.229,3.273,3.011,3.011,0,0,0,.312,4.345,8.3,8.3,0,0,0,1.051,6.13,26.928,26.928,0,0,0,3.133,9.391c.082.113.166.224.254.339l.2.27.078-.089a.961.961,0,0,0,.079-.1c.6-.782,1.166-1.6,1.684-2.436A15.6,15.6,0,0,0,6.67,5.009,3.565,3.565,0,0,0,6.9,2.838Zm-.944,1.9a13.739,13.739,0,0,1-1.236,2.33c-.254.4-.523.789-.784,1.171-.113.165-.227.331-.34.5l-.071-.1A26.109,26.109,0,0,1,1.75,5.833a9.537,9.537,0,0,1-.637-1.438,2.705,2.705,0,0,1,.269-2.287A2.523,2.523,0,0,1,2.854.887a2.333,2.333,0,0,1,2.224.387,2.874,2.874,0,0,1,1.11,1.891A2.831,2.831,0,0,1,5.958,4.738ZM3.6,2.013H3.592a1.47,1.47,0,1,0,.012,0ZM3.6,4.382v0H3.586a1.289,1.289,0,1,1,.011,0Z"/><rect class="a" x="11.241" y="17.793" width="1.009" height="1"/><rect class="a" x="9.224" y="17.793" width="1.009" height="1"/><rect class="a" x="7.206" y="17.793" width="1.009" height="1"/><rect class="a" x="5.188" y="17.793" width="1.009" height="1"/><path class="a" d="M4.178,18.793H3.534c-.14,0-.276-.007-.409-.018l.09-1c.1.009.21.014.319.014h.644Z"/><path class="a" d="M2,18.505a3.367,3.367,0,0,1-.994-.625l.672-.74a2.379,2.379,0,0,0,.7.439Z"/><path class="a" d="M.291,16.927A2.9,2.9,0,0,1,0,15.751l1-.027a1.9,1.9,0,0,0,.191.767Z"/><path class="a" d="M1.161,14.986l-.9-.446a2.619,2.619,0,0,1,.8-.94l.594.8A1.606,1.606,0,0,0,1.161,14.986Z"/><path class="a" d="M2.4,14.049l-.279-.961a4.837,4.837,0,0,1,1.107-.177l.051,1A3.916,3.916,0,0,0,2.4,14.049Z"/><rect class="a" x="8.297" y="12.904" width="1.009" height="1"/><rect class="a" x="6.28" y="12.904" width="1.008" height="1"/><rect class="a" x="4.264" y="12.904" width="1.008" height="1"/><rect class="a" x="4.997" y="9" width="1.01" height="1" transform="translate(-0.037 0.022) rotate(-0.224)"/><rect class="a" x="7.017" y="8.997" width="1.01" height="1" transform="translate(-0.037 0.029) rotate(-0.224)"/></svg>