<svg xmlns="http://www.w3.org/2000/svg" viewBox="0 0 32.25 26.49"><title>icon_vehicle_car</title><path d="M9.19,0H23c3.43,0,4.12,3.36,5.45,6.51l.36.83H31.6a.64.64,0,0,1,.65.64h0V9.12a.64.64,0,0,1-.64.64H29.84a8.78,8.78,0,0,1,.79,2.33V25.83a.66.66,0,0,1-.66.66H28.24a.66.66,0,0,1-.67-.66v-2.7H4.68v2.7a.66.66,0,0,1-.66.66H2.28a.66.66,0,0,1-.66-.66V12.08a9.17,9.17,0,0,1,.77-2.32H.65A.65.65,0,0,1,0,9.12V8a.64.64,0,0,1,.64-.64h2.8c.16-.39.33-.78.49-1.18C5.2,3.08,6.05,0,9.19,0ZM4.87,13.17h.5L9.51,16a2.06,2.06,0,0,1-1.9,1.26H4.87a2.08,2.08,0,0,1-2.06-2.06h0a2.08,2.08,0,0,1,2.06-2.07Zm22.5,0h-.5L22.74,16a2.06,2.06,0,0,0,1.9,1.26h2.73a2.06,2.06,0,0,0,2.06-2.06h0a2.07,2.07,0,0,0-2.06-2.07ZM11.94,1.93h9.47c1.49,0,2.95.3,3.47,1.69l1.13,3c.58,1.53-.84,2.7-2.33,2.7H8.27C6.79,9.29,5.44,8.11,6,6.59L7.2,3.53c.7-1.82,3.26-1.6,4.74-1.6Zm-.56,16.18h9.48a.65.65,0,0,1,.64.65V19.9a.64.64,0,0,1-.64.64H11.39a.65.65,0,0,1-.65-.64V18.76A.65.65,0,0,1,11.38,18.11Z" style="fill:#1b1e2a;fill-rule:evenodd"/></svg>