<svg xmlns="http://www.w3.org/2000/svg" viewBox="0 0 12.892 16.048"><defs><style>.a{fill:#4a484a;}</style></defs><title>icon_map_scale_1</title><path class="a" d="M5.515,0H.5A.5.5,0,0,0,0,.5H0V15.546a.5.5,0,0,0,.5.5H5.515a.5.5,0,0,0,.5-.5V.5a.5.5,0,0,0-.5-.5Zm-.5,15.044H1v-1.5H3.509v-1H1v-1.5H2.5v-1H1v-1.5H3.509v-1H1v-1.5H2.5v-1H1v-1.5H3.509v-1H1v-1.5H5.014Zm7.877-1.65L10.385,15.9a.5.5,0,0,1-.707,0L7.171,13.394l.707-.707,1.65,1.65V1.71L7.873,3.36l-.707-.707L9.673.146a.5.5,0,0,1,.707,0l2.507,2.507-.707.707L10.53,1.71V14.338l1.655-1.65Z"/></svg>