<svg xmlns="http://www.w3.org/2000/svg" viewBox="0 0 12.983 13.886"><defs><style>.a{fill:#4a484a;}</style></defs><title>icon_map_refresh_1</title><path class="a" d="M11.236,12.246h0Zm1.733.667.014.009h0V7.863Q10.7,8.911,8.414,9.974L8.4,9.982l.016.013c.307.205.621.406.937.607l.329.211c.086.055.17.112.252.168l.187.127-.056.1.036.059-.146.138a1.723,1.723,0,0,1-.132.111A5.462,5.462,0,0,1,1.383,9.151a.569.569,0,0,0-.509-.4.644.644,0,0,0-.075,0,.6.6,0,0,0-.548.852,6.643,6.643,0,0,0,6.561,4.282,6.571,6.571,0,0,0,4.251-1.811c.033-.028.058-.047.084-.067l.14-.106.186.065C11.972,12.28,12.471,12.6,12.969,12.913ZM7.244,1.279A5.328,5.328,0,0,1,11.6,4.74a.642.642,0,0,0,.358.377.6.6,0,0,0,.465-.009.611.611,0,0,0,.314-.8A6.379,6.379,0,0,0,11.319,2.08,6.491,6.491,0,0,0,5.33.117,6.313,6.313,0,0,0,1.957,1.805a.438.438,0,0,1-.315.143h0a.424.424,0,0,1-.3-.124C.938,1.564.5,1.28.052,1.006A.3.3,0,0,0,0,.977V6.032l.052-.023L3.185,4.565c.47-.216.94-.432,1.407-.652-.072-.048-.146-.095-.219-.141L2.851,2.793l.158-.285a1.011,1.011,0,0,1,.107-.1A5.229,5.229,0,0,1,7.244,1.279Z"/></svg>