<svg xmlns="http://www.w3.org/2000/svg" viewBox="0 0 64 64"><defs><style>.a,.b,.c{fill:none;stroke:#000;stroke-width:2px;}.a{stroke-linecap:round;}.a,.c{stroke-linejoin:round;}.b{stroke-miterlimit:10;}</style></defs><title>icon_bicycle</title><line class="a" x1="32" y1="29.333" x2="32" y2="62.667"/><line class="b" x1="38.667" y1="37.333" x2="45.333" y2="37.333"/><line class="b" x1="18.667" y1="54.667" x2="25.333" y2="54.667"/><path class="c" d="M49.333,1.333l-6.954.58a2.664,2.664,0,0,0-1.752.864L35.388,8.54"/><path class="b" d="M28,45.333v-18a4,4,0,0,1,2-3.464,4,4,0,0,0,2-3.464V16"/><path class="b" d="M36,45.333v-18a4,4,0,0,0-2-3.464,4,4,0,0,1-2-3.464V14.667"/><path class="b" d="M28,27.375a4,4,0,0,1,8,0"/><circle class="a" cx="32" cy="10.667" r="4"/><path class="c" d="M14.667,1.333l6.954.58a2.664,2.664,0,0,1,1.752.864L28.612,8.54"/></svg>