<svg xmlns="http://www.w3.org/2000/svg" viewBox="0 0 19.441 10.665"><title>icon_map_speed</title><g id="b7845891-92dd-4ab0-af7d-2f82364395f2" data-name="Layer 2"><g id="ebfe6eea-a716-4146-827b-0ecdbbbba830" data-name="Layer 1"><g id="e60b18d4-2692-438d-93a5-c86f0991b9b5" data-name="icon_map_speed"><g id="f5c4efff-d00e-4c70-8736-88cb08f63bfd" data-name="Path 3481"><path d="M1.274,9.717H0A9.862,9.862,0,0,1,.1,8.359l1.261.178A8.547,8.547,0,0,0,1.274,9.717ZM1.6,7.379.378,7.027a9.667,9.667,0,0,1,.469-1.28l1.163.521A8.512,8.512,0,0,0,1.6,7.379Zm.966-2.154-1.077-.68a9.826,9.826,0,0,1,.8-1.1l.974.821A8.683,8.683,0,0,0,2.568,5.225Zm1.526-1.8-.849-.949a9.932,9.932,0,0,1,1.074-.835L5.03,2.693A8.748,8.748,0,0,0,4.094,3.42ZM6.055,2.107,5.5.961A9.683,9.683,0,0,1,6.766.455l.387,1.214A8.457,8.457,0,0,0,6.055,2.107Zm6.959-.17.179-.616.246-.587-.246.587.3-.563Zm-1.187-.4a8.293,8.293,0,0,0-1.163-.213L10.8.056A9.663,9.663,0,0,1,12.146.3ZM8.3,1.389,8.09.134A9.937,9.937,0,0,1,9.443,0l.039,1.273A8.685,8.685,0,0,0,8.3,1.389Z" fill="#494849"/></g><path d="M8.91,9.008a.866.866,0,0,0-.381.907.89.89,0,0,0,.611.713.957.957,0,0,0,.9-.207l7.805-6.709a.366.366,0,0,0-.163-.681.365.365,0,0,0-.273.09L10.051,8.213C9.669,8.475,9.287,8.739,8.91,9.008Z" fill="#494849"/><path d="M17.089,5.608a8.447,8.447,0,0,1,1.078,4.107l1.274,0a9.731,9.731,0,0,0-1.374-4.965Z" fill="#494849"/><path d="M16.357,2.635A9.493,9.493,0,0,0,13.5.734l-.5,1.176A8.28,8.28,0,0,1,15.3,3.383Z" fill="#494849"/></g></g></g></svg>