<svg xmlns="http://www.w3.org/2000/svg" viewBox="0 0 15.186 15.785"><title>icon_map_trips</title><g id="ad436af8-d804-43ba-9eea-186b471e2dab" data-name="Layer 2"><g id="b7fe20ba-a16e-4942-bd14-28bab441d4a3" data-name="Layer 1"><path id="e476b5bc-0739-4d41-bf22-e2f8a979c4bd" data-name="icon_map_trips" d="M13.029,11.472a2.151,2.151,0,0,0-2.013,1.409H3.465a3.583,3.583,0,0,1-.387-.024,2.312,2.312,0,0,1-.274-.049,2.274,2.274,0,0,1,.577-4.481c2.774,0,5.588,0,8.365,0a3.959,3.959,0,0,0,.669-.058c.077-.015.15-.032.22-.05a3.348,3.348,0,0,0-.857-6.589H4.468a2.158,2.158,0,1,0,0,1.071h7.178a4.169,4.169,0,0,1,.429.023,2.534,2.534,0,0,1,.276.052,2.274,2.274,0,0,1-.56,4.479H3.393a3.957,3.957,0,0,0-.46.028A3.314,3.314,0,0,0,.118,9.723c-.033.118-.06.243-.084.363L0,10.256v.721c.009.038.018.082.028.128.022.114.046.231.077.344a3.35,3.35,0,0,0,3.256,2.5c2.5,0,5.039,0,7.545,0a2.152,2.152,0,1,0,2.122-2.478Zm1.121,2.156a1.121,1.121,0,1,1-1.121-1.121A1.122,1.122,0,0,1,14.15,13.628ZM3.5,2.157A1.121,1.121,0,1,1,2.377,1.036,1.122,1.122,0,0,1,3.5,2.157Z" fill="#494849"/></g></g></svg>