<svg xmlns="http://www.w3.org/2000/svg" viewBox="0 0 64 64"><defs><style>.a{fill:#a6b1c3;}</style></defs><title>icon_home</title><path class="a" d="M55.46,57.319a3.012,3.012,0,0,0,1.5.4,3.036,3.036,0,0,0,1.326-5.769,3.416,3.416,0,0,0-6.832,0,3.036,3.036,0,1,0,2.828,5.369v4.458H9.722V57.319a3.035,3.035,0,1,0,2.826-5.369,3.417,3.417,0,0,0-6.834,0A3.035,3.035,0,1,0,8.54,57.319v4.458h-3.7V64H59.164V61.777h-3.7Z"/><path class="a" d="M29,51.765h6.01v8.18h12.17V18.018H16.826V59.945H29Zm9.156-29.334h5.081v5.08H38.151Zm0,8.692h5.081V36.2H38.151Zm0,8.686h5.081v5.08H38.151Zm-8.69-17.378H34.54v5.08H29.461Zm0,8.692H34.54V36.2H29.461Zm0,8.686H34.54v5.08H29.461Zm-3.612,5.08h-5.08v-5.08h5.08Zm0-8.686h-5.08v-5.08h5.08Zm0-8.692h-5.08v-5.08h5.08Z"/></svg>