<svg xmlns="http://www.w3.org/2000/svg" viewBox="0 0 18.5 18.463"><defs><style>.a{fill:#4a484a;}</style></defs><title>icon_map_satelitte_1</title><path class="a" d="M14.388,11.034c.392.057.78.087,1.155.174a3.39,3.39,0,0,1,1.7,1.034c.154.163.116.3-.029.445q-.817.812-1.628,1.627c-.245.246-.245.3.007.553a1.352,1.352,0,0,0,.722.475.688.688,0,0,1,.489.762.813.813,0,0,1-.707.683.734.734,0,0,1-.724-.526c-.057-.389-.35-.575-.582-.816-.143-.148-.281-.058-.4.065q-.769.776-1.544,1.545c-.039.039-.077.078-.116.116-.194.186-.285.188-.475,0a3.467,3.467,0,0,1-1.126-2.706v-.137a.416.416,0,0,0-.084.043c-.34.31-.343.31-.677-.023Q7.863,11.842,5.355,9.332a2.13,2.13,0,0,1-.425-2.62.555.555,0,0,1,.081-.142A20.848,20.848,0,0,1,6.651,5a1.975,1.975,0,0,1,2.584.185c.871.832,1.713,1.7,2.566,2.548q1.313,1.311,2.622,2.625c.294.294.295.325.016.622A.58.58,0,0,0,14.388,11.034ZM7.822,5.6a1.044,1.044,0,0,0-.8.326c-.346.34-.67.705-1.035,1.023a1.147,1.147,0,0,0-.028,1.623l.013.014q2.26,2.256,4.517,4.516c.177.176.278.175.457,0q1.1-1.094,2.192-2.192c.17-.171.171-.288,0-.458Q10.873,8.184,8.6,5.92A1.05,1.05,0,0,0,7.822,5.6Zm4.212,8.977c.09.345.16.7.276,1.032.106.306.272.329.5.1q1.47-1.467,2.937-2.937c.226-.226.193-.374-.1-.508a2.592,2.592,0,0,0-3.613,2.313ZM0,15.3a1.456,1.456,0,0,1,.151-.231Q2.572,12.637,5,10.214a.265.265,0,0,1,.369-.057.257.257,0,0,1,.057.057L8.3,13.085a.249.249,0,0,1,.041.35.265.265,0,0,1-.041.041c-.038.04-.077.078-.115.117L3.516,18.258c-.272.272-.344.272-.61.007Q1.56,16.921.216,15.575A3.258,3.258,0,0,1,0,15.3Zm5.219-3.846A1.267,1.267,0,0,0,5,11.586q-1.746,1.738-3.487,3.482a.261.261,0,0,0,0,.424q.74.736,1.476,1.477a.27.27,0,0,0,.376.066.259.259,0,0,0,.066-.066Q5.164,15.234,6.9,13.5a.27.27,0,0,0,.066-.376.259.259,0,0,0-.066-.066c-.494-.49-.984-.985-1.479-1.474A1.373,1.373,0,0,0,5.219,11.449Zm8.1-3.066a1.55,1.55,0,0,1-.23-.156q-1.415-1.408-2.823-2.822c-.177-.178-.177-.284,0-.458L15.1.114a.271.271,0,0,1,.379-.063.273.273,0,0,1,.064.063Q16.969,1.544,18.4,2.97a.255.255,0,0,1,.051.357.274.274,0,0,1-.051.051l-.083.083L13.6,8.175A2.523,2.523,0,0,1,13.322,8.383Zm3.835-5.216a1.8,1.8,0,0,0-.163-.226q-.718-.726-1.443-1.445c-.174-.173-.287-.176-.458,0q-1.728,1.724-3.452,3.452c-.184.184-.185.273-.007.453.485.489.975.972,1.458,1.462a.267.267,0,0,0,.372.072.284.284,0,0,0,.068-.066q1.74-1.745,3.482-3.488a1.355,1.355,0,0,0,.143-.209Z"/></svg>