<svg id="Group_7157" data-name="Group 7157" xmlns="http://www.w3.org/2000/svg" width="28" height="28" viewBox="0 0 28 28">
  <path id="Path_4850" data-name="Path 4850" d="M14,0A14,14,0,1,1,0,14,14,14,0,0,1,14,0Z" fill="#a6b1c2"/>
  <path id="Path_4367" data-name="Path 4367" d="M199.033-664.824a.2.2,0,0,1-.046.015c-.189,0-.421.064-.552-.024-.114-.077-.119-.325-.166-.5a17.161,17.161,0,0,0-1.447-3.485c-.706-1.346-1.443-2.676-2.134-4.03a11.833,11.833,0,0,1-.987-2.384,5.221,5.221,0,0,1,4.128-6.446,5.16,5.16,0,0,1,5.956,4.261,5.5,5.5,0,0,1-.42,3.141c-.758,1.806-1.752,3.485-2.649,5.217a18.579,18.579,0,0,0-1.542,3.672C199.123-665.2,199.079-665.009,199.033-664.824Zm-2.907-11.719a2.587,2.587,0,0,0,2.579,2.606,2.588,2.588,0,0,0,2.565-2.563,2.589,2.589,0,0,0-2.56-2.644A2.587,2.587,0,0,0,196.126-676.543Z" transform="translate(-184.717 687.944)" fill="#fff"/>
</svg>
