<svg xmlns="http://www.w3.org/2000/svg" viewBox="0 0 16.801 14.516"><defs><style>.a{fill:#4a72b8;}</style></defs><title>icon_map_vehicle_1</title><path class="a" d="M2.69,14.516a1.545,1.545,0,0,1-1.543-1.542v-.745H.972A.973.973,0,0,1,0,11.258V7.829A2.707,2.707,0,0,1,1.362,5.492L3.463.251A.4.4,0,0,1,3.834,0h9.138a.4.4,0,0,1,.371.251l2.1,5.24A2.667,2.667,0,0,1,16.8,7.828v3.429a.973.973,0,0,1-.972.971h-.167v.743a1.547,1.547,0,0,1-1.543,1.544h0a1.543,1.543,0,0,1-1.543-1.542v-.744H4.234v.743a1.547,1.547,0,0,1-1.543,1.544ZM4.1.8,2.05,5.926a.4.4,0,0,1-.195.21A1.9,1.9,0,0,0,.8,7.829v3.429a.171.171,0,0,0,.171.171h.576a.4.4,0,0,1,.4.4v1.143a.743.743,0,0,0,.742.744h0a.745.745,0,0,0,.743-.744V11.829a.4.4,0,0,1,.4-.4h9.142a.4.4,0,0,1,.4.4v1.142a.743.743,0,0,0,.742.744h0a.745.745,0,0,0,.742-.744V11.828a.4.4,0,0,1,.4-.4h.567A.171.171,0,0,0,16,11.257V7.828a1.872,1.872,0,0,0-1.054-1.693.4.4,0,0,1-.2-.211L12.7.8ZM13.4,10.515a1.686,1.686,0,0,1,0-3.372H13.4A1.8,1.8,0,0,1,15.084,8.8,1.692,1.692,0,0,1,13.4,10.515Zm-.011-2.572a.886.886,0,1,0,.9.886A.99.99,0,0,0,13.388,7.943ZM3.437,10.514H3.388a1.715,1.715,0,0,1-1.249-.527A1.687,1.687,0,0,1,2.205,7.6a1.618,1.618,0,0,1,1.2-.461c.027,0,.07,0,.074,0A1.688,1.688,0,0,1,5.12,8.875a1.684,1.684,0,0,1-1.683,1.639ZM3.362,7.942a.886.886,0,0,0-.023,1.772.9.9,0,0,0,.7-.242.88.88,0,0,0,.277-.619.889.889,0,0,0-.242-.634.874.874,0,0,0-.618-.276h-.1Zm9.952-2H3.485a.4.4,0,0,1-.371-.549L4.49,1.965a.4.4,0,0,1,.371-.251h7.082a.4.4,0,0,1,.371.251L13.686,5.4a.4.4,0,0,1-.372.548Zm-9.237-.8h8.647L11.673,2.514H5.132Z"/></svg>