<svg xmlns="http://www.w3.org/2000/svg" viewBox="0 0 14.22 16"><title>icon_user</title><g id="be9d87c2-d7f8-4cb9-8487-c7c9d0409c8d" data-name="Layer 2"><g id="e86f9861-5471-4f4b-917c-3c975116cb5c" data-name="Layer 1"><path id="ba2e6124-392d-4cf7-9756-cdd5fb12dcc0" data-name="Path 3654" d="M14.22,11.69A8.11,8.11,0,0,1,0,11.9c.22-.09.43-.2.65-.28.59-.2,1.19-.37,1.79-.51s1.11-.3,1.66-.47a1.67,1.67,0,0,0,.64-.35A.65.65,0,0,0,5,10a1.22,1.22,0,0,0-.22-1.15A3.74,3.74,0,0,1,4.1,7.65a6.9,6.9,0,0,1-.21-.78.28.28,0,0,0-.1-.14,2.2,2.2,0,0,1-.33-.35A2.48,2.48,0,0,1,3.09,4.7a1.82,1.82,0,0,1,.11-.3.55.55,0,0,0,0-.18A4.61,4.61,0,0,1,3.26,3a3.4,3.4,0,0,1,.41-1.21A3,3,0,0,1,4.39,1,3.89,3.89,0,0,1,6.11.09,4.09,4.09,0,0,1,8.62.35a4.41,4.41,0,0,1,1.21.83,3,3,0,0,1,.79,1.51,4.73,4.73,0,0,1,.13,1.45.3.3,0,0,0,.05.16,1.1,1.1,0,0,1,.13.56,2.51,2.51,0,0,1-.41,1.5,1.92,1.92,0,0,1-.29.28.37.37,0,0,0-.05.11,4.81,4.81,0,0,1-.26,1,4.5,4.5,0,0,1-.58,1.08,1.11,1.11,0,0,0-.19.83.89.89,0,0,0,.54.73,4.43,4.43,0,0,0,1,.33l2.32.52A4.39,4.39,0,0,1,14.22,11.69Z" style="fill:#a6b1c3"/></g></g></svg>