<svg xmlns="http://www.w3.org/2000/svg" viewBox="0 0 17.24 17.784"><defs><style>.a{fill:#4a484a;}</style></defs><title>icon_map_flag_1</title><path class="a" d="M16.8,15.555v.262a1.49,1.49,0,0,1-.71.713,7.176,7.176,0,0,1-1.84.661,22.116,22.116,0,0,1-3.867.532c-.31.018-.619.041-.928.061l-2.1,0c-.326-.021-.653-.044-.979-.063a22.459,22.459,0,0,1-3.68-.5A7.525,7.525,0,0,1,.867,16.6a2.873,2.873,0,0,1-.57-.38.644.644,0,0,1-.195-.89.63.63,0,0,1,.2-.2,3.074,3.074,0,0,1,.659-.421,8.293,8.293,0,0,1,2.347-.693c.965-.151,1.938-.246,2.908-.365a.445.445,0,0,1,.073,0V14.7a15.8,15.8,0,0,0-4.919.994c.06.028.118.058.179.082a10.711,10.711,0,0,0,2.242.593,29.02,29.02,0,0,0,6.992.269,17.921,17.921,0,0,0,3.9-.663c.213-.065.42-.151.63-.229.035-.013.066-.034.148-.076a16.91,16.91,0,0,0-4.955-.971V13.652c.379.033.748.061,1.115.1a16.357,16.357,0,0,1,3.2.592,10.748,10.748,0,0,1,1.3.527A1.3,1.3,0,0,1,16.8,15.555Zm-9.942-.937V0L17.24,7.786H9.952l0,6.832A1.687,1.687,0,0,1,8.4,16.186,1.613,1.613,0,0,1,6.853,14.618Zm1,.006a.541.541,0,1,0,1.082,0c0-.1.052-7.838.052-7.838h5.251L7.853,2Z"/></svg>