<svg xmlns="http://www.w3.org/2000/svg" width="70.747" height="48.362" viewBox="0 0 70.747 48.362">
  <g id="Group_7240" data-name="Group 7240" transform="translate(-628.299 -183.094)">
    <g id="Group_7201" data-name="Group 7201" transform="translate(630.299 185.805)">
      <path id="Path_3481" data-name="Path 3481" d="M701.557,1045.733a35.565,35.565,0,0,1,2.6-13.414,34.633,34.633,0,0,1,7.1-10.955,33.126,33.126,0,0,1,10.524-7.385,32.014,32.014,0,0,1,25.774,0" transform="translate(-701.557 -1011.271)" fill="none" stroke="#a6b1c2" stroke-miterlimit="10" stroke-width="4"/>
      <path id="Path_3482" data-name="Path 3482" d="M995.21,1027.882a33.469,33.469,0,0,1,10.632,7.4,34.681,34.681,0,0,1,7.168,10.982,35.421,35.421,0,0,1,2.629,13.448" transform="translate(-949.216 -1025.253)" fill="none" stroke="#a6b1c2" stroke-miterlimit="10" stroke-width="4"/>
    </g>
    <path id="Path_4878" data-name="Path 4878" d="M1.135,0a1.11,1.11,0,1,0,1.1,1.109A1.108,1.108,0,0,0,1.135,0ZM7.687.865A1.108,1.108,0,1,0,7.982.9,1.105,1.105,0,0,0,7.687.865Zm6.072,2.548a1.108,1.108,0,1,0,1,1.664,1.113,1.113,0,0,0-.4-1.517A1.1,1.1,0,0,0,13.759,3.413Zm5.316,4.052a1.1,1.1,0,0,0-.795.326,1.115,1.115,0,0,0,0,1.569,1.1,1.1,0,0,0,1.559,0,1.115,1.115,0,0,0,0-1.569A1.1,1.1,0,0,0,19.075,7.465Zm3.984,5.284a1.1,1.1,0,0,0-.525.15,1.115,1.115,0,0,0-.4,1.515,1.1,1.1,0,0,0,1.5.4A1.115,1.115,0,0,0,24.04,13.3a1.1,1.1,0,0,0-.981-.554ZM25.624,18.9l-.078,0a1.1,1.1,0,0,0-.218.037,1.112,1.112,0,0,0-.78,1.36,1.1,1.1,0,0,0,1.35.784,1.111,1.111,0,0,0-.274-2.183Zm.851,6.606a1.11,1.11,0,1,0,1.1,1.109A1.108,1.108,0,0,0,26.474,25.511ZM25.6,32.118a1.1,1.1,0,1,0,.295.037A1.105,1.105,0,0,0,25.6,32.118Zm-2.579,6.16a1.107,1.107,0,1,0,.6.147A1.1,1.1,0,0,0,23.017,38.278Zm-3.965,5.287a1.1,1.1,0,0,0-.795.326,1.115,1.115,0,0,0,0,1.569,1.1,1.1,0,0,0,1.559,0,1.115,1.115,0,0,0,0-1.569,1.1,1.1,0,0,0-.764-.325Zm-5.295,4.059a1.1,1.1,0,0,0-.525.15,1.115,1.115,0,0,0-.4,1.515,1.1,1.1,0,0,0,1.5.407,1.115,1.115,0,0,0,.4-1.518A1.1,1.1,0,0,0,13.757,47.624Zm-6.05,2.555a1.1,1.1,0,0,0-.327.037,1.112,1.112,0,0,0-.78,1.36,1.1,1.1,0,0,0,1.35.784,1.11,1.11,0,0,0-.242-2.18Zm-6.6.873a1.11,1.11,0,1,0,1.1,1.109A1.108,1.108,0,0,0,1.1,51.052Z" transform="translate(637.1 217.839) rotate(-89)" fill="#a6b1c2" stroke="#a6b1c2" stroke-width="1" fill-rule="evenodd"/>
    <g id="Path_4879" data-name="Path 4879" transform="matrix(0.978, 0.208, -0.208, 0.978, 668.897, 186.653)" fill="#a6b1c2" stroke-miterlimit="10">
      <path d="M 4.214071273803711 37.88676071166992 L 4.127011299133301 37.87908935546875 C 1.931181073188782 37.68561172485352 0.2414511293172836 36.59692001342773 -0.7594888806343079 34.7307014465332 C -1.87346887588501 32.65436172485352 -1.723838925361633 30.49268913269043 -0.3380788862705231 28.64406967163086 C 0.6584011316299438 27.31522941589355 1.696101069450378 25.99463081359863 2.699631214141846 24.71751022338867 C 3.131371021270752 24.1680793762207 3.57780122756958 23.59993934631348 4.013541221618652 23.04054069519043 L 17.66375160217285 5.51377010345459 L 21.8936710357666 0.08264008164405823 C 22.67720031738281 -0.9231899380683899 23.78726196289062 -1.49999988079071 24.93932151794434 -1.49999988079071 C 25.69803047180176 -1.49999988079071 26.43935203552246 -1.252989888191223 27.08315086364746 -0.7856699228286743 C 27.90984153747559 -0.1861699223518372 28.4590015411377 0.6608800888061523 28.62892150878906 1.59906005859375 C 28.79847145080566 2.535210132598877 28.5973014831543 3.50294017791748 28.04716110229492 4.39762020111084 C 25.43368148803711 8.647780418395996 22.81906127929688 12.89725971221924 20.20442199707031 17.14676094055176 C 16.5694408416748 23.05459976196289 12.81070137023926 29.16357040405273 9.117120742797852 35.17385101318359 C 8.048781394958496 36.91173934936523 6.428581237792969 37.82360076904297 4.301441192626953 37.88426971435547 L 4.214071273803711 37.88676071166992 Z" stroke="none"/>
      <path d="M 4.258673667907715 36.38488388061523 C 5.846897125244141 36.33957672119141 7.031567573547363 35.70219039916992 7.839155673980713 34.38848114013672 C 14.14528560638428 24.12701225280762 20.46068572998047 13.87143611907959 26.7694034576416 3.611918210983276 C 27.4924144744873 2.436094760894775 27.25827407836914 1.194224238395691 26.2020149230957 0.4282359778881073 C 25.80523109436035 0.1402300447225571 25.37122344970703 7.503733456815098e-08 24.93931770324707 7.503733456815098e-08 C 24.26259613037109 7.503733456815098e-08 23.59115791320801 0.3444048464298248 23.07709693908691 1.004318356513977 C 17.1169319152832 8.657082557678223 11.15646171569824 16.31015396118164 5.196897029876709 23.96230697631836 C 3.749308824539185 25.82073020935059 2.275708675384521 27.65872955322266 0.8621440529823303 29.54377746582031 C -0.1541853547096252 30.89957809448242 -0.2948324084281921 32.42394256591797 0.5623793601989746 34.0217170715332 C 1.364579319953918 35.51738739013672 2.654438257217407 36.2435302734375 4.258673667907715 36.38488388061523 M 4.169485092163086 39.38864898681641 L 3.995355844497681 39.37330627441406 C 2.702767610549927 39.2594108581543 1.536767601966858 38.88529586791992 0.5297205448150635 38.2613639831543 C -0.5611618161201477 37.58547210693359 -1.439655900001526 36.63613128662109 -2.081361770629883 35.43968200683594 C -2.777102947235107 34.14288330078125 -3.080267667770386 32.80801391601562 -2.982267618179321 31.47247123718262 C -2.885032415390015 30.14715385437012 -2.399208784103394 28.89283561706543 -1.538303017616272 27.74436569213867 C -0.5316324234008789 26.40194129943848 0.511238157749176 25.07475280761719 1.519779324531555 23.791259765625 C 1.950685262680054 23.24288368225098 2.396250009536743 22.67583656311035 2.830167531967163 22.11877632141113 L 16.03690910339355 5.161424160003662 L 20.71023750305176 -0.8390463590621948 C 21.78008460998535 -2.212446451187134 23.32146263122559 -2.999999284744263 24.9393196105957 -2.999999284744263 C 26.01662635803223 -2.999999284744263 27.06263732910156 -2.654069900512695 27.96428489685059 -1.999611139297485 C 29.1051197052002 -1.172281622886658 29.86572074890137 0.01109478995203972 30.10490798950195 1.331741809844971 C 30.33795547485352 2.618483066558838 30.06095504760742 3.986330032348633 29.32493209838867 5.183306694030762 C 26.71369743347168 9.429823875427246 24.10133171081543 13.67562389373779 21.48895645141602 17.92145919799805 C 17.85179138183594 23.83284759521484 14.09079074859619 29.94549560546875 10.39508533477783 35.95921325683594 C 9.063885688781738 38.12468338012695 6.971602916717529 39.30871963500977 4.34421443939209 39.38365936279297 L 4.169485092163086 39.38864898681641 Z" stroke="none" fill="#fff"/>
    </g>
  </g>
</svg>
