<svg xmlns="http://www.w3.org/2000/svg" viewBox="0 0 16.611 15.143"><title>icon_map_events</title><g id="e44b6643-aac3-4c3f-8c90-8d3fd4e909e6" data-name="Layer 2"><g id="a51e8c11-e63e-4649-807c-f6c22c70230f" data-name="Layer 1"><g id="a6e82e31-54a8-4e22-9ecc-8e2554b8c8d5" data-name="icon_map_events"><g id="a527ae32-2833-49fd-a006-a39141d3fd22" data-name="Path 4134"><path d="M12.227,15.143H10.265l-8.049,0a2.112,2.112,0,0,1-1.53-.58A2.157,2.157,0,0,1,.32,11.851L6.389,1.163a2.168,2.168,0,0,1,3.859.034l5.567,9.814c.168.294.336.589.5.885a2.156,2.156,0,0,1-.763,2.943,2.228,2.228,0,0,1-1.117.3Q13.334,15.144,12.227,15.143ZM8.3,14.188h1.967c1.392,0,2.783,0,4.172,0a1.552,1.552,0,0,0,.629-.168,1.2,1.2,0,0,0,.423-1.649c-.17-.3-.336-.6-.5-.888L9.408,1.645a1.226,1.226,0,0,0-.544-.558,1.216,1.216,0,0,0-1.637.528L1.14,12.336a1.211,1.211,0,0,0-.186.687,1.2,1.2,0,0,0,.382.841,1.138,1.138,0,0,0,.865.324Z" fill="#494849"/></g><path d="M8.42,9.591a.848.848,0,0,1-.335-.069A.748.748,0,0,1,7.6,9a4.856,4.856,0,0,1-.163-.79C7.357,7.231,7.3,6.266,7.243,5.3a3.031,3.031,0,0,1,.031-.763,1.191,1.191,0,0,1,1.351-.957,1,1,0,0,1,.851.688,2.728,2.728,0,0,1,.155,1.124V5.4l-.065.733c-.054.616-.107,1.232-.167,1.847a6.793,6.793,0,0,1-.153.984l-.036.1A.859.859,0,0,1,8.42,9.591Zm.035-5.262a.427.427,0,0,0-.432.342A2.272,2.272,0,0,0,8,5.243c.056.975.114,1.935.187,2.9a4.08,4.08,0,0,0,.137.652c.106.051.161.029.18-.018a6.043,6.043,0,0,0,.133-.864c.061-.619.114-1.232.167-1.845l.065-.73a1.993,1.993,0,0,0-.116-.817.257.257,0,0,0-.222-.182A.535.535,0,0,0,8.455,4.329Z" fill="#494849"/><path d="M8.443,12.538l-.055,0a1.181,1.181,0,0,1-.852-.357,1.167,1.167,0,0,1-.331-.813v-.042A1.193,1.193,0,0,1,8.4,10.135H8.4a1.21,1.21,0,0,1,.869.368,1.2,1.2,0,0,1-.829,2.035ZM8.409,10.9a.432.432,0,0,0-.315.124.424.424,0,0,0-.127.3v.028a.411.411,0,0,0,.116.295.465.465,0,0,0,.32.126.435.435,0,0,0,.312-.105.408.408,0,0,0,.132-.282.475.475,0,0,0-.124-.356.437.437,0,0,0-.31-.134Z" fill="#494849"/></g></g></g></svg>