<svg xmlns="http://www.w3.org/2000/svg" viewBox="0 0 99.52 16.57"><title>logo_infomobil</title><g id="a0994ef7-24c8-4aba-b8fc-bfca88dbe507" data-name="Layer 2"><g id="e46614b6-7391-4705-b498-521efde92182" data-name="Layer 1"><path id="fbce3a09-a9b8-4790-a11d-189d99458da1" data-name="Path 1" d="M6.27,7.16a4.13,4.13,0,0,1,3.4-2,3.25,3.25,0,0,1,2.71.95c1.14,1.18,1,2.5,1,4v6.15h-1.7V9.48s0-2.76-2.39-2.86C7.6,6.55,6.66,8.12,6.27,9v7.33H4.51V5.49H6.27Zm8.26-1.7h1.79V3.93A3.43,3.43,0,0,1,18.68.17a4,4,0,0,1,2.1-.06V1.62a3.12,3.12,0,0,0-1.13-.15c-1.7.1-1.6,2.43-1.6,2.43V5.46h2.48V6.92H18.05v9.41H16.32V6.92H14.53ZM26,6.66a3.59,3.59,0,0,0-2,.55,4.37,4.37,0,0,0-1.59,4.05c.08,2,1.17,3.85,3.55,3.84s3.46-1.85,3.55-3.83a4.37,4.37,0,0,0-1.6-4,3.46,3.46,0,0,0-2-.56Zm-.1-1.43h.2a5.3,5.3,0,0,1,5.29,5.28v.77a5.31,5.31,0,0,1-5.3,5.29h-.2a5.3,5.3,0,0,1-5.28-5.29v-.77a5.3,5.3,0,0,1,5.28-5.28Zm17,4.79s.18-2.25,1.84-2.28a1.63,1.63,0,0,1,1.75,1.78v6.81H49.8V8.39a3.16,3.16,0,0,0-2.87-3.2,4.6,4.6,0,0,0-4.28,2,3,3,0,0,0-2.66-2,4.08,4.08,0,0,0-4.05,2.07V5.49H32.6V16.33H36V9.92c0-.43.37-2.16,1.82-2.18a1.63,1.63,0,0,1,1.75,1.78v6.81h3.35V10Zm13.6-2.29h.3A2.33,2.33,0,0,1,59.09,10v1.69A2.32,2.32,0,0,1,56.78,14h-.3a2.31,2.31,0,0,1-2.31-2.31V10a2.32,2.32,0,0,1,2.31-2.3ZM56.12,5.2h1a5.37,5.37,0,0,1,5.35,5.35v.68a5.37,5.37,0,0,1-5.35,5.34h-1a5.37,5.37,0,0,1-5.35-5.35v-.68a5.37,5.37,0,0,1,5.35-5.35Zm10.81,6.68A2.2,2.2,0,0,0,69.18,14h.17c2.42-.18,2.1-3.73,2.1-3.73s0-2.54-2.24-2.51a2.33,2.33,0,0,0-2.28,2Zm0-4.67a4.22,4.22,0,0,1,5.79-1.43,4.06,4.06,0,0,1,1.61,1.75s1.5,3.87-.47,7a4.36,4.36,0,0,1-3.4,2,4.18,4.18,0,0,1-3.53-1.5v1.29H63.62V.25h3.31Zm9.12-1.7h3.26V16.33H76Zm5-5.25h3.32V16.33H81.06Zm-3.4,0A1.84,1.84,0,0,1,79.6,2a1.95,1.95,0,0,1-3.87,0A1.84,1.84,0,0,1,77.66.28ZM.74.34a1.22,1.22,0,0,1,1,2.25A1.22,1.22,0,0,1,.1,1.94,1.21,1.21,0,0,1,.74.35ZM.29,5.49H2.05V16.33H.29Z" style="fill:#444647;fill-rule:evenodd"/><path id="a383ec19-5479-4148-a319-833f4e3b0757" data-name="Path 2" d="M86.17.27h6.67V7h6.68v6.68H92.84V7H86.17Z" style="fill:#fbc315;fill-rule:evenodd"/></g></g></svg>