<svg xmlns="http://www.w3.org/2000/svg" viewBox="0 0 24 24"><title>icon_overview</title><g id="b22ad147-c396-445c-9c79-273d86e5cbb2" data-name="Layer 2"><g id="bcf2b60c-8442-43bb-a701-b90c1e287f9c" data-name="Layer 1"><g id="eddfc709-c0b3-49a6-bf41-ef4a826edf2a" data-name="pie-chart"><g id="bb71a2ba-af3d-42a1-b78a-3a08fbba31d1" data-name="Group 179"><path id="f3709e79-7034-4856-b183-dd102005496c" data-name="Path 408" d="M20.75,12.61H11.39V3.26a.67.67,0,0,0-.67-.68h0A10.71,10.71,0,1,0,21.43,13.29.69.69,0,0,0,20.75,12.61Zm-10,10A9.35,9.35,0,0,1,10,4v9.33a.68.68,0,0,0,.68.68H20A9.36,9.36,0,0,1,10.71,22.64Z" style="fill:#a6b1c3"/><path id="b903226e-7827-4d77-9b3f-9842b2fee915" data-name="Path 409" d="M24,10.68A10.71,10.71,0,0,0,13.28,0a.68.68,0,0,0-.68.67h0v10a.67.67,0,0,0,.68.68h10a.69.69,0,0,0,.68-.67h0ZM14,10V1.39A9.36,9.36,0,0,1,22.61,10Z" style="fill:#a6b1c3"/></g></g></g></g></svg>