<svg xmlns="http://www.w3.org/2000/svg" width="61.506" height="58.158" viewBox="0 0 61.506 58.158">
  <g id="Group_7237" data-name="Group 7237" transform="translate(4.004 4)">
    <g id="Path_4872" data-name="Path 4872" transform="translate(-619.824 -2138.327)" fill="none">
      <path d="M646.545,2188.476q-10.4,0-20.79,0a5.946,5.946,0,0,1-5.093-9.063q10.387-18.913,20.776-37.826a5.7,5.7,0,0,1,10.32.042q9.43,17.217,18.888,34.417c.633,1.154,1.268,2.307,1.894,3.464a5.938,5.938,0,0,1-4.992,8.958C660.547,2188.5,653.546,2188.476,646.545,2188.476Z" stroke="none"/>
      <path d="M 659.00390625 2188.48486328125 C 661.8513793945312 2188.48486328125 664.6998901367188 2188.480712890625 667.5473022460938 2188.46630859375 C 672.0636596679688 2188.4443359375 674.7459106445312 2183.587646484375 672.539794921875 2179.508056640625 C 671.9136962890625 2178.351318359375 671.2789916992188 2177.198486328125 670.6458129882812 2176.044189453125 C 664.34814453125 2164.57373046875 658.0441284179688 2153.10546875 651.7574462890625 2141.62744140625 C 650.6123046875 2139.53759765625 648.93798828125 2138.334228515625 646.609130859375 2138.32666015625 C 646.6011962890625 2138.32666015625 646.5933227539062 2138.32666015625 646.5853881835938 2138.32666015625 C 644.2711181640625 2138.32666015625 642.5802001953125 2139.50146484375 641.4371337890625 2141.585205078125 C 634.517578125 2154.197265625 627.5866088867188 2166.80224609375 620.66162109375 2179.410888671875 C 618.3505859375 2183.61865234375 621.0728759765625 2188.46875 625.7550659179688 2188.473876953125 C 628.528076171875 2188.47705078125 631.3004150390625 2188.47802734375 634.0734252929688 2188.47802734375 C 638.2304077148438 2188.47802734375 642.3881225585938 2188.475830078125 646.5452270507812 2188.475830078125 C 650.698486328125 2188.475830078125 654.8507080078125 2188.48486328125 659.00390625 2188.48486328125 M 659.00390625 2192.48486328125 C 656.9251098632812 2192.48486328125 654.8129272460938 2192.482666015625 652.770263671875 2192.480224609375 C 650.729736328125 2192.47802734375 648.6196899414062 2192.475830078125 646.5452270507812 2192.475830078125 C 644.4669799804688 2192.475830078125 642.3886108398438 2192.476318359375 640.310302734375 2192.476806640625 C 638.2312622070312 2192.477294921875 636.1522827148438 2192.47802734375 634.0734252929688 2192.47802734375 C 630.8609008789062 2192.47802734375 628.2162475585938 2192.4765625 625.7505493164062 2192.473876953125 C 622.177734375 2192.469970703125 618.9835205078125 2190.672119140625 617.2061767578125 2187.664306640625 C 615.3754272460938 2184.566162109375 615.3565063476562 2180.760986328125 617.1556396484375 2177.4853515625 C 619.5313110351562 2173.15966796875 621.90771484375 2168.834716796875 624.2840576171875 2164.509521484375 C 628.7583618164062 2156.3662109375 633.385009765625 2147.945556640625 637.9302368164062 2139.6611328125 C 639.8173828125 2136.22119140625 642.8911743164062 2134.32666015625 646.5853881835938 2134.32666015625 L 646.6199951171875 2134.32666015625 C 648.5487670898438 2134.3330078125 650.30126953125 2134.84814453125 651.8309326171875 2135.858154296875 C 653.2097778320312 2136.768310546875 654.3652954101562 2138.062744140625 655.2653198242188 2139.705322265625 C 659.9840087890625 2148.320556640625 664.7916870117188 2157.074462890625 669.4410400390625 2165.5400390625 C 671.0115356445312 2168.39990234375 672.58203125 2171.25927734375 674.152099609375 2174.119140625 L 674.4906616210938 2174.736083984375 C 675.0052490234375 2175.673583984375 675.537353515625 2176.642822265625 676.0575561523438 2177.60400390625 C 676.9313354492188 2179.2197265625 677.3685302734375 2181.021240234375 677.3226318359375 2182.81494140625 C 677.2786254882812 2184.53515625 676.7943725585938 2186.22216796875 675.9222412109375 2187.693359375 C 674.1605834960938 2190.6650390625 671.0370483398438 2192.449462890625 667.5667724609375 2192.46630859375 C 665.041259765625 2192.47900390625 662.3201904296875 2192.48486328125 659.00390625 2192.48486328125 Z" stroke="none" fill="#a6b1c2"/>
    </g>
    <g id="Group_7236" data-name="Group 7236" transform="translate(23.646 11.465)">
      <path id="Path_4885" data-name="Path 4885" d="M1018.721,583.53h.015a3.294,3.294,0,0,1,3.251,3.407,3.143,3.143,0,0,1-3.229,3.256h-.006a3.18,3.18,0,0,1-3.219-3.281,3.248,3.248,0,0,1,3.188-3.382" transform="translate(-1015.533 -559.399)" fill="#a6b1c2"/>
      <path id="Path_4886" data-name="Path 4886" d="M1018.992,549.853a3.615,3.615,0,0,1,.437.026,2.506,2.506,0,0,1,2.155,1.755,9.992,9.992,0,0,1,.536,3.967c-.3,3.489-.58,6.981-.909,10.468a27.015,27.015,0,0,1-.57,3.8,1.777,1.777,0,0,1-1.777,1.345,2.076,2.076,0,0,1-.736-.136,1.606,1.606,0,0,1-1.077-1.111,18.608,18.608,0,0,1-.59-2.97c-.29-3.912-.521-7.827-.737-11.743a11.252,11.252,0,0,1,.1-2.762,3.17,3.17,0,0,1,3.166-2.639" transform="translate(-1015.577 -549.853)" fill="#a6b1c2"/>
    </g>
  </g>
</svg>
