<svg xmlns="http://www.w3.org/2000/svg" viewBox="0 0 14.58 15"><title>icon_settings</title><g id="f8c1bb00-e353-40b1-999f-5f4fe53052f5" data-name="Layer 2"><g id="fad24525-8231-4b5c-b096-bb04213d6057" data-name="Layer 1"><path id="a871301b-53f0-463b-b54b-9d89923287a4" data-name="Path 1129" d="M12.87,8.23a6,6,0,0,0,.05-.73,4.49,4.49,0,0,0-.06-.73l1.58-1.24a.39.39,0,0,0,.1-.48L13,2.45a.39.39,0,0,0-.46-.17L10.71,3A5.83,5.83,0,0,0,9.45,2.3l-.28-2A.38.38,0,0,0,8.79,0h-3a.37.37,0,0,0-.36.32l-.29,2A5.3,5.3,0,0,0,3.88,3L2,2.29a.36.36,0,0,0-.46.17L.05,5.06a.36.36,0,0,0,.1.47L1.73,6.77a4.77,4.77,0,0,0,0,1.46L.14,9.47A.4.4,0,0,0,0,10l1.5,2.6a.39.39,0,0,0,.46.17L3.87,12a5.52,5.52,0,0,0,1.27.73l.28,2a.38.38,0,0,0,.37.32h3a.35.35,0,0,0,.37-.32l.28-2A5.11,5.11,0,0,0,10.7,12l1.87.75a.36.36,0,0,0,.46-.17l1.5-2.6a.35.35,0,0,0-.09-.47L12.87,8.23ZM7.29,10.31A2.81,2.81,0,1,1,10.1,7.5h0A2.81,2.81,0,0,1,7.29,10.31Z" style="fill:#a6b1c3"/></g></g></svg>