<?xml version="1.0" encoding="utf-8"?>
<!-- Generator: Adobe Illustrator 24.0.0, SVG Export Plug-In . SVG Version: 6.00 Build 0)  -->
<svg version="1.1" id="Layer_1" xmlns="http://www.w3.org/2000/svg" xmlns:xlink="http://www.w3.org/1999/xlink" x="0px" y="0px"
	 viewBox="0 0 45 45" style="enable-background:new 0 0 45 45;" xml:space="preserve">
<style type="text/css">
	.st0{fill:#A6B1C3;}
</style>
<path id="infomobil-destek_3" class="st0" d="M34.4,28.1c-3.1-0.3-4.8,3.9-7,5.1c-3.7,2-10.4-5.1-10.4-5.1s-7-6.8-5.4-10.4
	c1.4-2.3,5.6-3.9,5.4-7c-0.3-2.8-6.5-13-9.6-10.1C0.6,6.7,0,9.2,0,14.3C-0.3,23,11,34,11,34c1.1,1.1,11,11.3,19.7,11
	c5.1,0,7.6-0.6,13.8-7.3C47.3,34.6,37.5,28.4,34.4,28.1L34.4,28.1z"/>
</svg>
