<svg xmlns="http://www.w3.org/2000/svg" viewBox="0 0 64 64"><defs><style>.a{fill:none;stroke:#000;stroke-linejoin:round;stroke-width:2px;}</style></defs><title>icon_van</title><path class="a" d="M48,57.333v4a1.333,1.333,0,0,0,1.333,1.334h5.334A1.333,1.333,0,0,0,56,61.333v-4"/><path class="a" d="M16,57.333v4a1.333,1.333,0,0,1-1.333,1.334H9.333A1.333,1.333,0,0,1,8,61.333v-4"/><line class="a" x1="21.333" y1="45.333" x2="42.667" y2="45.333"/><line class="a" x1="21.333" y1="49.333" x2="42.667" y2="49.333"/><path class="a" d="M56,32h4a1.333,1.333,0,0,0,1.333-1.333V25.333A1.333,1.333,0,0,0,60,24H58.667"/><path class="a" d="M5.333,24H4a1.333,1.333,0,0,0-1.333,1.333v5.334A1.333,1.333,0,0,0,4,32H8"/><path class="a" d="M52.3,3.655,56,32l1.333,6.667v16a2.667,2.667,0,0,1-2.666,2.666H9.333a2.667,2.667,0,0,1-2.666-2.666v-16L8,32,11.7,3.655a2.667,2.667,0,0,1,2.644-2.322H49.659A2.667,2.667,0,0,1,52.3,3.655Z"/><path class="a" d="M51.541,30.316l-3-11.018a2.667,2.667,0,0,0-2.573-1.965H18.037A2.667,2.667,0,0,0,15.464,19.3L12.459,30.316A1.334,1.334,0,0,0,13.746,32H50.254A1.334,1.334,0,0,0,51.541,30.316Z"/><polyline class="a" points="48 49.333 49.333 44 57.333 44"/><polyline class="a" points="16 49.333 14.667 44 6.667 44"/></svg>