<svg xmlns="http://www.w3.org/2000/svg" viewBox="0 0 17 19"><defs><style>.a{fill:#4a484a;}</style></defs><title>Asset 42</title><path class="a" d="M12.5,19h-8A1.5,1.5,0,0,1,3,17.5v-.77A4.5,4.5,0,0,1,0,12.5.5.5,0,0,1,.5,12H3v-.27A4.5,4.5,0,0,1,0,7.5.5.5,0,0,1,.5,7H3V6.73A4.5,4.5,0,0,1,0,2.5.5.5,0,0,1,.5,2H3V1.5A1.5,1.5,0,0,1,4.5,0h8A1.5,1.5,0,0,1,14,1.5V2h2.5a.5.5,0,0,1,.5.5A4.5,4.5,0,0,1,14,6.73V7h2.5a.5.5,0,0,1,.5.5,4.5,4.5,0,0,1-3,4.229V12h2.5a.5.5,0,0,1,.5.5,4.5,4.5,0,0,1-3,4.229v.77A1.5,1.5,0,0,1,12.5,19ZM1.038,13a3.5,3.5,0,0,0,2.587,2.876A.5.5,0,0,1,4,16.36V17.5a.5.5,0,0,0,.5.5h8a.5.5,0,0,0,.5-.5V16.36a.5.5,0,0,1,.375-.484A3.5,3.5,0,0,0,15.962,13H13.5a.5.5,0,0,1-.5-.5V11.36a.5.5,0,0,1,.375-.484A3.5,3.5,0,0,0,15.962,8H13.5a.5.5,0,0,1-.5-.5V6.36a.5.5,0,0,1,.375-.484A3.5,3.5,0,0,0,15.962,3H13.5a.5.5,0,0,1-.5-.5v-1a.5.5,0,0,0-.5-.5h-8a.5.5,0,0,0-.5.5v1a.5.5,0,0,1-.5.5H1.038A3.5,3.5,0,0,0,3.625,5.876.5.5,0,0,1,4,6.36V7.5a.5.5,0,0,1-.5.5H1.038a3.5,3.5,0,0,0,2.587,2.876A.5.5,0,0,1,4,11.36V12.5a.5.5,0,0,1-.5.5ZM8.5,16.5a2,2,0,1,1,2-2A2,2,0,0,1,8.5,16.5Zm0-3a1,1,0,1,0,1,1A1,1,0,0,0,8.5,13.5Zm0-2a2,2,0,1,1,2-2A2,2,0,0,1,8.5,11.5Zm0-3a1,1,0,1,0,1,1A1,1,0,0,0,8.5,8.5Zm0-2a2,2,0,1,1,2-2A2,2,0,0,1,8.5,6.5Zm0-3a1,1,0,1,0,1,1A1,1,0,0,0,8.5,3.5Z"/></svg>