<svg xmlns="http://www.w3.org/2000/svg" width="15" height="12.323" viewBox="0 0 15 12.323">
  <path id="Path_1053" data-name="Path 1053" d="M1121.4,264.192h6.409c1.594,0,1.916,1.565,2.534,3.029.055.128.109.258.164.383h1.316a.3.3,0,0,1,.3.3v.527a.3.3,0,0,1-.3.3H1131a4.1,4.1,0,0,1,.369,1.081V276.2a.31.31,0,0,1-.308.31h-.807a.311.311,0,0,1-.31-.31V274.95H1119.3V276.2a.31.31,0,0,1-.31.31h-.807a.31.31,0,0,1-.308-.31v-6.393a4.186,4.186,0,0,1,.36-1.079h-.812a.3.3,0,0,1-.3-.3V267.9a.3.3,0,0,1,.3-.3h1.3c.075-.18.153-.363.228-.545.591-1.432.985-2.867,2.45-2.867Zm-2.009,6.126h.233l1.923,1.332a.964.964,0,0,1-.885.588h-1.27a.965.965,0,0,1-.96-.96h0a.963.963,0,0,1,.96-.96Zm10.466,0h-.233l-1.923,1.332a.964.964,0,0,0,.885.588h1.268a.963.963,0,0,0,.96-.96h0a.961.961,0,0,0-.958-.96Zm-7.177-5.23,4.4,0c.691,0,1.37.139,1.615.787l.524,1.384c.269.714-.39,1.259-1.083,1.259h-7.166c-.691,0-1.318-.552-1.045-1.259l.543-1.421c.324-.846,1.516-.746,2.208-.746Zm-.26,7.526h4.406a.3.3,0,0,1,.3.3v.529a.3.3,0,0,1-.3.3h-4.4a.3.3,0,0,1-.3-.3v-.529a.3.3,0,0,1,.3-.3Z" transform="translate(-1117.125 -264.192)" fill="#2979ff" fill-rule="evenodd"/>
</svg>
