<svg xmlns="http://www.w3.org/2000/svg" viewBox="0 0 26.75 15.29"><title>icon_performance</title><g id="b08361fd-21a9-4adf-b3cb-9b6ecd40a8c6" data-name="Layer 2"><g id="ba49e209-7a1a-4b70-9e13-1b90ae801971" data-name="Layer 1"><g id="aa42b407-9e6e-4af2-8846-616e8d4c6fdd" data-name="Group 3525"><path id="b89b5edb-53aa-4a80-b16e-ba93572559f5" data-name="Path 3481" d="M.65,13.37A12.73,12.73,0,0,1,18.33,1.65" style="fill:none;stroke:#a6b1c3;stroke-miterlimit:10;stroke-width:1.2999999523162842px"/><path id="b493ab06-903e-462f-ba05-44774dc4eb1d" data-name="Path 3482" d="M18.33,1.65A12.7,12.7,0,0,1,26.1,13.37" style="fill:none;stroke:#a6b1c3;stroke-miterlimit:10;stroke-width:1.2999999523162842px"/></g><path id="ac2f0bd6-fb8b-47e7-8ec0-d69b532f23b0" data-name="Path 3751" d="M2.1,12.72a.47.47,0,1,0,.94.06.47.47,0,0,0-.44-.51h0A.46.46,0,0,0,2.1,12.72ZM2.51,10a.48.48,0,0,0,.94.13.47.47,0,0,0-.32-.56h0a.48.48,0,0,0-.59.32.37.37,0,0,0,0,.11ZM3.65,7.54a.44.44,0,0,0,.23.38.48.48,0,0,0,.65-.16.44.44,0,0,0-.15-.61h0a.5.5,0,0,0-.36,0,.43.43,0,0,0-.29.2.45.45,0,0,0-.07.25ZM5.42,5.38a.46.46,0,0,0,.13.33.48.48,0,0,0,.67,0,.43.43,0,0,0,0-.62l0,0a.48.48,0,0,0-.67,0,.45.45,0,0,0-.14.31ZM7.71,3.77A.4.4,0,0,0,7.77,4a.48.48,0,0,0,.64.18.44.44,0,0,0,.19-.6v0A.48.48,0,0,0,8,3.37a.45.45,0,0,0-.24.4Zm2.65-1v0s0,.06,0,.09a.46.46,0,0,0,.57.33.45.45,0,0,0,.35-.53v0a.49.49,0,0,0-.58-.33.46.46,0,0,0-.35.43Zm2.82-.3a.49.49,0,0,0,.45.5.48.48,0,0,0,.06-1h0a.46.46,0,0,0-.48.44ZM16,2.87a.46.46,0,0,0,.34.44A.49.49,0,0,0,16.93,3a.45.45,0,0,0-.31-.56h0a.48.48,0,0,0-.58.32.36.36,0,0,0,0,.11ZM18.61,4a.48.48,0,0,0,.88.23.44.44,0,0,0,.06-.35.48.48,0,0,0-.22-.28.48.48,0,0,0-.65.16.51.51,0,0,0-.07.24Zm2.23,1.67A.51.51,0,0,0,21,6a.49.49,0,0,0,.67,0,.44.44,0,0,0,0-.63v0a.51.51,0,0,0-.68,0A.47.47,0,0,0,20.84,5.64Zm1.7,2.22a.46.46,0,0,0,.06.22.48.48,0,0,0,.64.17.44.44,0,0,0,.19-.6h0a.44.44,0,0,0-.28-.22.5.5,0,0,0-.36,0,.45.45,0,0,0-.24.4Zm1,2.51a.34.34,0,0,0,0,.14.48.48,0,0,0,.57.33.47.47,0,0,0,.35-.54h0a.49.49,0,0,0-.58-.34.46.46,0,0,0-.35.42Zm.32,2.73a.48.48,0,0,0,.45.5.46.46,0,0,0,.5-.44.48.48,0,0,0-.44-.51h0a.47.47,0,0,0-.48.45Z" style="fill:#a6b1c3;fill-rule:evenodd"/><path id="beece867-4718-4441-86ac-6e0be5d58fb4" data-name="Path 3752" d="M12.46,15a1.57,1.57,0,0,1-1.08-1.26A1.55,1.55,0,0,1,12,12.1c.77-.55,1.55-1.07,2.33-1.61l9.55-6.62A.88.88,0,0,1,25.15,4l0,0A.86.86,0,0,1,25,5.19l0,0L14.05,14.61A1.68,1.68,0,0,1,12.46,15Z" style="fill:#a6b1c3;stroke:#fff;stroke-miterlimit:10;stroke-width:0.5px"/></g></g></svg>