<?xml version="1.0" encoding="utf-8"?>
<!-- Generator: Adobe Illustrator 23.0.6, SVG Export Plug-In . SVG Version: 6.00 Build 0)  -->
<svg version="1.1" id="Layer_1" xmlns="http://www.w3.org/2000/svg" xmlns:xlink="http://www.w3.org/1999/xlink" x="0px" y="0px"
	 viewBox="0 0 64 64" style="enable-background:new 0 0 64 64;" xml:space="preserve">
<style type="text/css">
	.st0{fill:none;stroke:#000000;stroke-width:2;stroke-linejoin:round;}
</style>
<title>icon_ship</title>
<polyline class="st0" points="17.7,56.5 10,34.7 32,24.7 54,34.7 46.3,56.5 "/>
<line class="st0" x1="37.3" y1="33.8" x2="42.7" y2="36.2"/>
<line class="st0" x1="32" y1="56.7" x2="32" y2="24.7"/>
<line class="st0" x1="32" y1="10" x2="32" y2="2"/>
<line class="st0" x1="26.7" y1="33.8" x2="21.3" y2="36.2"/>
<path class="st0" d="M17.3,31.3v-12c0-0.7,0.6-1.3,1.3-1.3c0,0,0,0,0,0h26.7c0.7,0,1.3,0.6,1.3,1.3c0,0,0,0,0,0v12"/>
<path class="st0" d="M22.7,18v-6.7c0-0.7,0.6-1.3,1.3-1.3l0,0h16c0.7,0,1.3,0.6,1.3,1.3l0,0V18"/>
<path class="st0" d="M0,60.7c3,0,5.9-1.2,8-3.3c4.4,4.4,11.5,4.4,15.9,0.1c0,0,0,0,0.1-0.1c4.4,4.4,11.5,4.4,15.9,0.1
	c0,0,0,0,0.1-0.1c4.4,4.4,11.5,4.4,15.9,0.1c0,0,0,0,0.1-0.1c2.1,2.1,5,3.3,8,3.3"/>
</svg>
