<svg xmlns="http://www.w3.org/2000/svg" viewBox="0 0 23.61 24.41"><title>icon_trips</title><g id="b96ea445-c7ac-4046-85a3-53bdc59d1608" data-name="Layer 2"><g id="bbecb5b3-d4dc-4e44-a852-90f9952bfe31" data-name="Layer 1"><g id="a4e348b2-020a-4298-9d6b-d2c1e19fc729" data-name="Group 3520"><path id="e1f054bf-127a-4da2-843f-d4e7552715b6" data-name="Path 3471" d="M0,15.51c.06-.25.1-.49.17-.73a4.68,4.68,0,0,1,3.94-3.43c.22,0,.43,0,.65,0h12a3.35,3.35,0,0,0,.88-6.6,2.7,2.7,0,0,0-.41-.07,4.21,4.21,0,0,0-.62,0H5.2l.17-1.44a.46.46,0,0,0,0,.1H16.75A4.69,4.69,0,0,1,18,12.51l-.3.06a5,5,0,0,1-.94.09h-12a3.35,3.35,0,0,0-.85,6.6l.41.07a5.25,5.25,0,0,0,.56,0h11.2c.05-.26.33,1.34.16,1.34H4.71A4.69,4.69,0,0,1,.15,17.2c-.06-.23-.1-.46-.15-.69Z" style="fill:#a6b1c3"/><g id="a86aef68-2f3a-4bfd-b640-9fa091513f79" data-name="Ellipse 100"><circle cx="4.38" cy="4" r="4" style="fill:#fff"/><circle cx="4.38" cy="4" r="3.4" style="fill:none;stroke:#a6b1c3;stroke-width:1.2000000476837158px"/></g><g id="bd1c6cc7-bb01-4c66-9311-625c688d2905" data-name="Path 3682"><path d="M19.61,23.81a3.4,3.4,0,1,1,3.4-3.4A3.41,3.41,0,0,1,19.61,23.81Z" style="fill:#fff"/><path d="M19.61,17.61a2.8,2.8,0,1,0,2.8,2.8,2.81,2.81,0,0,0-2.8-2.8m0-1.2a4,4,0,1,1-4,4A4,4,0,0,1,19.61,16.41Z" style="fill:#a6b1c3"/></g></g></g></g></svg>