<svg xmlns="http://www.w3.org/2000/svg" viewBox="0 0 20.613 17.835"><defs><style>.a{fill:#4a484a;}</style></defs><title>icon_map_points_1</title><path class="a" d="M8.158,13.117H6.668c.1-.2.192-.376.293-.549a.174.174,0,0,1,.133-.05h.648a.17.17,0,0,1,.121.042C7.963,12.734,8.052,12.915,8.158,13.117Zm6.293,0c-.1-.193-.184-.365-.284-.531a.17.17,0,0,0-.126-.064c-.222-.007-.445-.008-.667,0a.188.188,0,0,0-.135.08c-.094.161-.17.329-.27.514ZM4.9,5.832a1.5,1.5,0,0,0-1.493,1.5,1.512,1.512,0,0,0,1.5,1.519h.008a1.5,1.5,0,0,0,.769-.217c-.1-.237-.188-.48-.277-.722a.753.753,0,0,1-.492.192H4.867a.767.767,0,0,1,.05-1.533h0a.83.83,0,0,1,.1.019,5.356,5.356,0,0,1-.095-.763ZM6.352,9.984c-.144.251-.285.5-.445.746-.246.385-.5.762-.763,1.139l-.228.332a24.726,24.726,0,0,1-1.67-2.646A8.924,8.924,0,0,1,2.64,8.188a2.5,2.5,0,0,1,.251-2.111A2.324,2.324,0,0,1,4.246,4.954a2.129,2.129,0,0,1,.7-.117c.01,0,.019,0,.029,0a6.285,6.285,0,0,1,.191-.928,3.025,3.025,0,0,0-.838.041,3.182,3.182,0,0,0-1.9,1.13A3.7,3.7,0,0,0,1.578,7.13,2.985,2.985,0,0,0,1.661,8.2a8.038,8.038,0,0,0,.717,1.742,25.8,25.8,0,0,0,2.005,3.139c.091.123.184.246.281.373l.251.332.234-.3c.577-.755,1.124-1.545,1.621-2.348.046-.072.085-.15.13-.223C6.719,10.6,6.524,10.3,6.352,9.984ZM16.458,6.8a.755.755,0,0,1-.478,1.3c-.1.247-.231.486-.344.731a1.542,1.542,0,0,0,.274.029h.008a1.51,1.51,0,0,0,.575-2.907,6.049,6.049,0,0,1-.1.8A.827.827,0,0,1,16.458,6.8Zm2.74-.1a3.617,3.617,0,0,0-1.2-2.038,3.122,3.122,0,0,0-1.727-.739c.04.144.095.282.125.429.038.184.049.369.07.554a2.157,2.157,0,0,1,.819.4A2.645,2.645,0,0,1,18.3,7.055a2.593,2.593,0,0,1-.212,1.453,13.093,13.093,0,0,1-1.184,2.222c-.246.385-.5.762-.763,1.139l-.228.332c-.4-.548-.765-1.124-1.119-1.708-.175.315-.355.628-.544.936.358.566.733,1.12,1.13,1.653.091.123.184.246.281.373l.251.332.234-.3c.577-.755,1.124-1.545,1.621-2.348a14.952,14.952,0,0,0,1.2-2.284A3.522,3.522,0,0,0,19.2,6.7Zm-3.66,1.158a24.325,24.325,0,0,1-1.945,3.71c-.812,1.308-1.7,2.6-2.642,3.823a1.7,1.7,0,0,1-.125.162l-.122.14-.32-.424c-.136-.181-.269-.356-.4-.532A42.518,42.518,0,0,1,6.718,9.622a13.018,13.018,0,0,1-1.16-2.8,4.738,4.738,0,0,1-.13-1.683A5.86,5.86,0,0,1,6.78,1.885,5.035,5.035,0,0,1,9.776.1a4.936,4.936,0,0,1,4.215,1.127A5.758,5.758,0,0,1,15.9,4.455,5.591,5.591,0,0,1,15.538,7.862Zm-.756-2.894A4.513,4.513,0,0,0,13.039,2a3.667,3.667,0,0,0-3.491-.608,3.96,3.96,0,0,0-2.31,1.917A4.246,4.246,0,0,0,6.815,6.9a14.994,14.994,0,0,0,1,2.258,40.916,40.916,0,0,0,2.789,4.409l.111.149c.178-.263.356-.523.534-.783.41-.6.833-1.218,1.231-1.838a21.573,21.573,0,0,0,1.94-3.657A4.438,4.438,0,0,0,14.782,4.968Zm-1.759.511a2.308,2.308,0,1,1-2.316-2.32h.019A2.308,2.308,0,0,1,13.023,5.479Zm-.9-.018A1.415,1.415,0,1,0,10.7,6.883h.017v0A1.416,1.416,0,0,0,12.126,5.461Zm6.191,7.073c-.02-.047-.044-.092-.072-.146l-.043-.083a.1.1,0,0,0-.089-.054h0a.1.1,0,0,0-.089.058l-.043.094c-.091.2-.169.366-.254.529a.479.479,0,0,0,0,.463c.442.987,1.329,3,1.569,3.542H1.322c.24-.547,1.127-2.555,1.569-3.542a.479.479,0,0,0,0-.463c-.085-.163-.163-.334-.254-.529l-.043-.094a.1.1,0,0,0-.089-.058h0a.1.1,0,0,0-.089.054l-.043.083c-.028.054-.052.1-.072.146-.7,1.586-2.3,5.1-2.3,5.122l0,.084a.1.1,0,0,0,.1.1H20.51a.1.1,0,0,0,.1-.1l0-.084C20.614,17.639,19.022,14.12,18.317,12.534Z"/></svg>