<svg xmlns="http://www.w3.org/2000/svg" viewBox="0 0 26.92 24.5"><title>icon_events</title><g id="ba635145-98e6-4cd9-b641-266a2ff783ae" data-name="Layer 2"><g id="bef5b92f-8dfe-4369-afb8-ce17d1498c5e" data-name="Layer 1"><path id="beeb0fbe-7aa7-4efd-b748-270f17c93528" data-name="Path 3524" d="M13.45,23.9h-10A2.76,2.76,0,0,1,1,19.69L11,2.11A2.79,2.79,0,0,1,14.73.9,2.84,2.84,0,0,1,16,2.13q4.53,8,9.07,16l.91,1.61a2.76,2.76,0,0,1-1,3.78,2.65,2.65,0,0,1-1.43.38C20.17,23.91,16.81,23.9,13.45,23.9ZM15.21,8.67A4.44,4.44,0,0,0,15,6.83a1.21,1.21,0,0,0-1-.81,1.52,1.52,0,0,0-1.73,1.21,5,5,0,0,0,0,1.28c.1,1.82.22,3.64.35,5.46a9.14,9.14,0,0,0,.29,1.38.74.74,0,0,0,.52.51.89.89,0,0,0,1.17-.46l0-.1a11.72,11.72,0,0,0,.28-1.76c.16-1.62.29-3.25.43-4.87ZM12.07,18.78a1.5,1.5,0,0,0,1.47,1.53h.08a1.49,1.49,0,0,0,1.55-1.42V18.8a1.56,1.56,0,0,0-1.52-1.59h0a1.53,1.53,0,0,0-1.54,1.53v0Z" style="fill:none;stroke:#a6b1c3;stroke-width:1.2000000476837158px"/></g></g></svg>