<svg xmlns="http://www.w3.org/2000/svg" viewBox="0 0 64 64"><defs><style>.a{fill:none;stroke:#000;stroke-linejoin:round;stroke-width:2px;}</style></defs><title>icon_truck</title><path class="a" d="M44,57.333v4a1.333,1.333,0,0,0,1.333,1.334h5.334A1.333,1.333,0,0,0,52,61.333V56"/><path class="a" d="M22.667,57.333v4a1.334,1.334,0,0,1-1.334,1.334H16a1.333,1.333,0,0,1-1.333-1.334V56"/><line class="a" x1="12" y1="46.667" x2="54.667" y2="46.667"/><line class="a" x1="25.333" y1="52" x2="41.333" y2="52"/><rect class="a" x="17.333" y="18.667" width="32" height="13.333" rx="1.333"/><line class="a" x1="18.667" y1="37.333" x2="48" y2="37.333"/><line class="a" x1="21.333" y1="52" x2="16" y2="52"/><line class="a" x1="50.667" y1="52" x2="45.333" y2="52"/><path class="a" d="M9.333,10.667V4A2.667,2.667,0,0,1,12,1.333H54.667A2.667,2.667,0,0,1,57.333,4v6.667"/><path class="a" d="M54.667,20h4A1.333,1.333,0,0,1,60,21.333V32a1.333,1.333,0,0,1-1.333,1.333h-4"/><path class="a" d="M12,20H8a1.333,1.333,0,0,0-1.333,1.333V32A1.333,1.333,0,0,0,8,33.333h4"/><line class="a" x1="18.667" y1="41.333" x2="48" y2="41.333"/><rect class="a" x="12" y="13.333" width="42.667" height="44" rx="2.667"/></svg>