<svg xmlns="http://www.w3.org/2000/svg" viewBox="0 0 64 64"><defs><style>.a,.b{fill:none;stroke:#000;stroke-width:2px;}.a{stroke-miterlimit:10;}.b{stroke-linejoin:round;}</style></defs><title>icon_motorcycle</title><circle class="a" cx="32" cy="16" r="4"/><path class="b" d="M32,50.667h0"/><path class="b" d="M32,50.667h0"/><path class="b" d="M40,16h1.361A5.33,5.33,0,0,1,46.7,21.305a163.305,163.305,0,0,1-1.507,23.211A5.333,5.333,0,0,1,43.109,48L36,53.333"/><path class="a" d="M32,62.667a4,4,0,0,1-4-4v-16a4,4,0,0,1,8,0v16A4,4,0,0,1,32,62.667Z"/><line class="a" x1="45.333" y1="42.667" x2="52" y2="42.667"/><path class="b" d="M24,16H22.639a5.33,5.33,0,0,0-5.334,5.305,163.305,163.305,0,0,0,1.507,23.211A5.333,5.333,0,0,0,20.891,48L28,53.333"/><line class="a" x1="18.667" y1="42.667" x2="12" y2="42.667"/><path class="a" d="M28,32l-3.623-2.718L22.667,9.333a12.889,12.889,0,0,1,18.666,0l-1.71,19.949L36,32"/><polyline class="a" points="50.667 8 45.333 12 41.333 12"/><polyline class="a" points="41.333 12 45.333 12 54.7 14.667"/><path class="b" d="M50.784,1.333h8.981A.235.235,0,0,1,60,1.568V7.883A.117.117,0,0,1,59.883,8H50.667a0,0,0,0,1,0,0V1.451A.117.117,0,0,1,50.784,1.333Z"/><polyline class="a" points="14.667 8 20 12 24 12"/><polyline class="a" points="24 12 20 12 10.633 14.667"/><path class="b" d="M5.333,1.333h9.216a.117.117,0,0,1,.117.117V7.765A.235.235,0,0,1,14.432,8H5.451a.117.117,0,0,1-.117-.117V1.333A0,0,0,0,1,5.333,1.333Z" transform="translate(20 9.333) rotate(180)"/></svg>