<svg id="Group_7159" data-name="Group 7159" xmlns="http://www.w3.org/2000/svg" width="28" height="28" viewBox="0 0 28 28">
  <path id="Path_1059" data-name="Path 1059" d="M14,0A14,14,0,1,1,0,14,14,14,0,0,1,14,0Z" fill="#a6b1c2"/>
  <path id="appbar-transit-car" d="M16.311,28.555a.478.478,0,0,1-.478-.478V25.211A1.911,1.911,0,0,1,16.9,23.5L18.7,19h7.644l1.8,4.5a1.911,1.911,0,0,1,1.069,1.716v2.867a.478.478,0,0,1-.478.478h-.478v.956a.956.956,0,1,1-1.911,0v-.956H18.7v.956a.956.956,0,1,1-1.911,0v-.956Zm2.1-5.255h8.218l-1.147-2.867H19.56Zm-.072,1.672a1.075,1.075,0,1,0,0,2.15,1.075,1.075,0,1,0,0-2.15Zm8.361,0a1.075,1.075,0,1,0,1.075,1.075A1.172,1.172,0,0,0,26.7,24.972Z" transform="translate(-8.535 -10.734)" fill="#fff"/>
</svg>
