<?xml version="1.0" encoding="utf-8"?>
<!-- Generator: Adobe Illustrator 24.0.0, SVG Export Plug-In . SVG Version: 6.00 Build 0)  -->
<svg version="1.1" id="Layer_1" xmlns="http://www.w3.org/2000/svg" xmlns:xlink="http://www.w3.org/1999/xlink" x="0px" y="0px"
	 viewBox="0 0 45 33" style="enable-background:new 0 0 45 33;" xml:space="preserve">
<style type="text/css">
	.st0{fill:#A6B1C3;}
</style>
<path id="infomobil-destek_2" class="st0" d="M3.9,0C1.8-0.1,0.1,1.6,0,3.7c0,0,0,0.1,0,0.1v25.5C0,31.3,1.7,33,3.8,33
	c0,0,0,0,0.1,0h37.3c2.1,0.1,3.8-1.6,3.9-3.7c0,0,0,0,0-0.1V3.7C45,1.7,43.3,0,41.2,0c0,0,0,0-0.1,0L3.9,0z M18.7,9.1
	c0.2,0,0.2,0,0.3,0.1l10.8,6.6c0.1,0,0.2,0.1,0.2,0.1c0,0,0,0,0,0c0.3,0.4,0.2,0.9-0.2,1.2L19,23.9c-0.5,0.3-1.1-0.1-1.1-0.7V9.9
	C18,9.4,18.3,9.1,18.7,9.1L18.7,9.1L18.7,9.1z"/>
</svg>
