<?xml version="1.0" encoding="utf-8"?>
<!-- Generator: Adobe Illustrator 23.0.6, SVG Export Plug-In . SVG Version: 6.00 Build 0)  -->
<svg version="1.1" id="Layer_1" xmlns="http://www.w3.org/2000/svg" xmlns:xlink="http://www.w3.org/1999/xlink" x="0px" y="0px"
	 viewBox="0 0 64 64" style="enable-background:new 0 0 64 64;" xml:space="preserve">
<style type="text/css">
	.st0{fill:none;stroke:#000000;stroke-width:2;stroke-linejoin:round;}
</style>
<title>icon_automobile</title>
<path class="st0" d="M46.7,48.3v4c0,0.7,0.6,1.3,1.3,1.3c0,0,0,0,0,0h8c0.7,0,1.3-0.6,1.3-1.3c0,0,0,0,0,0v-4"/>
<path class="st0" d="M17.3,48.3v4c0,0.7-0.6,1.3-1.3,1.3c0,0,0,0,0,0H8c-0.7,0-1.3-0.6-1.3-1.3c0,0,0,0,0,0v-4"/>
<polyline class="st0" points="22.7,44.3 22.7,40.3 41.3,40.3 41.3,44.3 "/>
<polyline class="st0" points="45.3,35 53.3,35 56.3,32.7 "/>
<path class="st0" d="M53.7,23.6L56,19h5.3c0.7,0,1.3,0.6,1.3,1.3c0,0,0,0,0,0V23L56,25.7"/>
<path class="st0" d="M10.3,23.6L8,19H2.7c-0.7,0-1.3,0.6-1.3,1.3c0,0,0,0,0,0V23L8,25.7"/>
<path class="st0" d="M17.3,35h-8l-2.2-2.2"/>
<path class="st0" d="M53.7,22.4l-4.2-8.5c-0.9-1.8-2.8-2.9-4.8-2.9H19.3c-2,0-3.9,1.1-4.8,2.9l-4.2,8.5c-0.3,0.7-0.1,1.5,0.6,1.8
	c0.2,0.1,0.4,0.1,0.6,0.1h41c0.7,0,1.3-0.6,1.3-1.3C53.8,22.8,53.8,22.6,53.7,22.4z"/>
<path class="st0" d="M10.7,21.7l-5.1,6.1C4.5,29,4,30.5,4,32.1v13.6c0,1.5,1.2,2.7,2.7,2.7h50.7c1.5,0,2.7-1.2,2.7-2.7V32.1
	c0-1.6-0.5-3.1-1.5-4.3l-5.1-6.1"/>
</svg>
