<svg xmlns="http://www.w3.org/2000/svg" viewBox="0 0 19.52 20"><title>icon_list</title><rect x="2.7" y="4.4" width="8.92" height="1.45" style="fill:#a6b1c3"/><path d="M16,15.27a3.15,3.15,0,1,0-4.28,1.21,3.18,3.18,0,0,0,3.09,0L18.33,20l1.19-1.19Zm-1.42-.22a1.93,1.93,0,0,1-2.65,0,1.88,1.88,0,1,1,2.65,0Z" style="fill:#a6b1c3"/><path d="M14.21,17.67H1.77a.36.36,0,0,1-.35-.36V1.77a.35.35,0,0,1,.35-.35H14.21a.36.36,0,0,1,.36.35h0V9.7a3.67,3.67,0,0,1,1.42.65V1.77A1.78,1.78,0,0,0,14.21,0H1.77A1.78,1.78,0,0,0,0,1.77V17.31a1.79,1.79,0,0,0,1.77,1.78H14.21c.74,0,1.1-.18,1.36-.83l-.64-.64A2,2,0,0,1,14.21,17.67Z" style="fill:#a6b1c3"/><rect x="2.7" y="8.47" width="8.92" height="1.45" style="fill:#a6b1c3"/></svg>