<svg xmlns="http://www.w3.org/2000/svg" viewBox="0 0 23 23.06"><title>icon_heatmap</title><g id="a6b51c44-e955-403e-91e0-0d7c8f4c0cb4" data-name="Layer 2"><g id="aee00ba8-6d40-42a6-82b2-409da6dd7a16" data-name="Layer 1"><g id="acd0c5df-e559-4049-9edc-82e6c440df1f" data-name="Group 3590"><g id="e8d99900-52bf-4c6f-bdd5-3b22c90fb5b0" data-name="xjFzFb.tif"><g id="a3cccf61-e774-4558-824e-578caae7aa33" data-name="Group 3589"><path id="f570ea9c-ce46-48d8-a808-58b2c55f1edc" data-name="Path 3874" d="M7.81,16.41a1.9,1.9,0,0,1-2.6.53,1.88,1.88,0,0,1-.55-2.6h0a1.89,1.89,0,0,1,2.61-.55h0A1.9,1.9,0,0,1,7.81,16.41Z" style="fill:none;stroke:#a6b1c3;stroke-miterlimit:10"/><path id="b730af52-d3ab-49be-b046-171296c1add3" data-name="Path 3876" d="M19,5.63a1.22,1.22,0,0,1,.34,1.7h0a1.24,1.24,0,0,1-1.71.33A1.22,1.22,0,0,1,17.33,6l0,0A1.21,1.21,0,0,1,19,5.63Z" style="fill:none;stroke:#a6b1c3;stroke-miterlimit:10"/><path id="b4f68bed-f89d-40dc-b176-10e8872044ae" data-name="Path 3877" d="M17.26,13.52a2,2,0,0,1,.53,2.75,2,2,0,0,1-2.73.54h0a2,2,0,0,1-.53-2.74h0A2,2,0,0,1,17.26,13.52Z" style="fill:none;stroke:#a6b1c3;stroke-miterlimit:10"/><path id="b2b57c98-8009-457a-a0ae-d506d77eda6c" data-name="Path 3878" d="M6.81,6a2.85,2.85,0,0,1,4-.73h0A2.86,2.86,0,1,1,7.52,9.91l0,0A2.86,2.86,0,0,1,6.81,6Z" style="fill:none;stroke:#a6b1c3;stroke-miterlimit:10"/></g></g><path id="a04fff3c-92cd-444e-8a05-1542dc993af7" data-name="Path 3880" d="M21.89.53l-.2,0L15.16,3.1,7.83.53.94,2.85a.62.62,0,0,0-.44.59V21.92a.6.6,0,0,0,.6.61h0l.2,0L7.84,20l7.33,2.57,6.89-2.32a.62.62,0,0,0,.44-.59V1.14a.6.6,0,0,0-.6-.61Z" style="fill:none;stroke:#a6b1c3"/></g></g></g></svg>