<svg xmlns="http://www.w3.org/2000/svg" viewBox="0 0 26.25 26.25"><title>icon_fuel_consumption</title><g id="a72d12ad-aefe-4aae-a6a3-f6140e277804" data-name="Layer 2"><g id="a7187e08-1dc4-4bcd-acc5-4499885d46ab" data-name="Layer 1"><path id="b19e8585-de08-48a4-91bc-1e8340d1e1e3" data-name="Path 3671" d="M25.65,5.36V19.93a2.74,2.74,0,0,0,0,.28A3.39,3.39,0,0,1,21.69,23a3.2,3.2,0,0,1-1.36-.56,3.27,3.27,0,0,1-1.46-2.84V12.47c0-.07,0-.14,0-.22a.75.75,0,0,0-.61-.67,7.53,7.53,0,0,0-.95,0V23.05h.29a1.3,1.3,0,0,1,1.28,1.32,1.32,1.32,0,0,1-.42.93,1.57,1.57,0,0,1-.72.35h-16l-.09,0a1.27,1.27,0,0,1-1-.86c0-.08-.05-.16-.07-.23v-.36a.14.14,0,0,0,0-.06A1.28,1.28,0,0,1,1.7,23.06c.15,0,.3,0,.46,0V2.66a2.1,2.1,0,0,1,1.5-2C3.78.65,3.9.63,4,.6H15.45c.12,0,.25.05.37.09a2.09,2.09,0,0,1,1.48,2V9H18a3.64,3.64,0,0,1,1.18.18,3.39,3.39,0,0,1,2.3,3.28v7.31a.78.78,0,0,0,1.56,0V7.91H21.54a1.12,1.12,0,0,1-.44-.09,1.15,1.15,0,0,1-.58-1.51A1.23,1.23,0,0,1,20.75,6c.3-.33.62-.65.93-1l.39-.41-.1-.1c-.56-.57-1.14-1.13-1.69-1.7A1.27,1.27,0,0,1,20.8.67L21,.6h.29a1.5,1.5,0,0,1,.78.4c.93.93,1.87,1.85,2.8,2.79a2.39,2.39,0,0,1,.64,1.11C25.59,5.05,25.62,5.2,25.65,5.36ZM9.73,11h3.76A1.13,1.13,0,0,0,14.68,10a.24.24,0,0,0,0-.12V4.4A1.13,1.13,0,0,0,13.6,3.21H6A1.14,1.14,0,0,0,4.77,4.3a.21.21,0,0,0,0,.11V9.84a1.13,1.13,0,0,0,.06.41A1.12,1.12,0,0,0,6,11Z" style="fill:none;stroke:#a6b1c3;stroke-width:1.2000000476837158px"/></g></g></svg>