<svg xmlns="http://www.w3.org/2000/svg" viewBox="0 0 170.52 77.5">
	<path d="M162.55,77.5H8a8,8,0,0,1-8-8V8A8,8,0,0,1,8,0H162.55a8,8,0,0,1,8,8V69.53A8,8,0,0,1,162.55,77.5ZM8,4.73A3.24,3.24,0,0,0,4.73,8V69.53A3.25,3.25,0,0,0,8,72.78H162.55a3.26,3.26,0,0,0,3.25-3.25V8a3.26,3.26,0,0,0-3.25-3.25Z" style="fill:#909091"/>
	<path d="M54.16,33.91h2c2.41,0,3.68-1.09,3.68-3.2,0-1.95-.9-3-2.59-3s-2.67,1-2.93,2.86l-5.11-.38c.3-4.81,3-7.14,8.34-7.14s8,2.59,8,7.44c0,2.78-.75,4.32-2.7,5.64,2.48,1.61,3.34,3.26,3.34,6.5,0,5.4-2.81,8.07-8.56,8.07-3.61,0-6.16-1-7.63-2.93a7.4,7.4,0,0,1-1.43-4.54l5.41-.64C54.2,44.91,55.29,46,57.35,46s3.08-1.27,3.08-3.57a3.77,3.77,0,0,0-3.94-4.09H54.16Z" style="fill:#909091"/>
	<path d="M79.74,45.67H69.19V42.21l8.19-18.78h6.08L75.72,41.08h4v-6h5.15v6h2.33v4.59H84.89v4.58H79.74Z" style="fill:#909091"/>
	<rect x="4.67" y="2.39" width="36.04" height="70.39" style="fill:#909091"/>
	<path d="M11.42,49.4H6.86v-3H19.65v3H15.11V63.53H11.42Z" style="fill:#fff"/>
	<path d="M26,63.53h-3.7V46.4h6.51c2.3,0,3.53.33,4.44,1.24a5,5,0,0,1,1.25,3.8c0,3-.89,4.36-3.1,5l3.7,7.1H31l-3.22-6.81H26Zm2.5-9.65c1.7,0,2.35-.62,2.35-2.28s-.65-2.28-2.4-2.28H25.89v4.56Z" style="fill:#fff"/>
</svg>