<svg xmlns="http://www.w3.org/2000/svg" viewBox="0 0 15.197 15.197"><title>icon_map_focus</title><g id="acf6a354-24de-40b3-af31-1ba16b49889d" data-name="Layer 2"><g id="b01f3491-1c33-46e5-a910-b0462ccd7a1c" data-name="Layer 1"><g id="a7cad481-4ed8-426f-a6aa-6aac814a1de0" data-name="icon_map_focus"><g id="a4bd596e-d280-45ac-8006-efe913242513" data-name="icon_map_focus"><polygon points="10.882 0 10.882 1.086 14.112 1.086 14.112 4.319 15.197 4.319 15.197 0 10.882 0" fill="#494849"/><polygon points="1.085 14.112 1.085 10.886 0 10.886 0 15.197 4.315 15.197 4.315 14.112 1.085 14.112" fill="#494849"/><polygon points="14.112 10.886 14.112 14.112 10.882 14.112 10.882 15.197 15.197 15.197 15.197 10.886 14.112 10.886" fill="#494849"/><polygon points="1.085 4.319 1.085 1.086 4.315 1.086 4.315 0 0 0 0 4.319 1.085 4.319" fill="#494849"/></g><path id="a4aab7a9-22f4-4501-aa12-e2c23c7fde37" data-name="icon_car" d="M5.711,4.319H9.463c.934,0,1.122.915,1.484,1.773l.1.224h.77a.176.176,0,0,1,.176.176h0V6.8a.175.175,0,0,1-.175.176h-.481a2.4,2.4,0,0,1,.216.633v3.741a.181.181,0,0,1-.181.181H10.9a.182.182,0,0,1-.182-.181v-.735H4.483v.735a.181.181,0,0,1-.182.181H3.829a.181.181,0,0,1-.181-.181V7.608a2.506,2.506,0,0,1,.211-.631H3.384A.176.176,0,0,1,3.208,6.8v-.31a.175.175,0,0,1,.175-.175h.761c.044-.1.09-.212.133-.319.346-.839.577-1.678,1.434-1.678ZM4.535,7.905h.136l1.126.78a.564.564,0,0,1-.517.344H4.535a.564.564,0,0,1-.562-.562h0a.564.564,0,0,1,.562-.562Zm6.126,0h-.136L9.4,8.685a.563.563,0,0,0,.517.344h.742a.562.562,0,0,0,.562-.562h0a.562.562,0,0,0-.56-.562ZM6.46,4.843l2.578,0c.4,0,.8.082.945.461l.307.811c.158.418-.228.737-.634.737H5.461c-.405,0-.772-.323-.612-.737l.318-.832c.191-.5.888-.436,1.293-.436ZM6.307,9.249h2.58a.177.177,0,0,1,.176.177v.309a.177.177,0,0,1-.176.177H6.309a.179.179,0,0,1-.177-.177V9.426A.178.178,0,0,1,6.307,9.249Z" fill="#494849" fill-rule="evenodd"/></g></g></g></svg>