<svg xmlns="http://www.w3.org/2000/svg" viewBox="0 0 20.154 8.484"><defs><style>.a{fill:#4a72b8;}</style></defs><title>icon_map_tag_1</title><path class="a" d="M4.762,3.846h.289A.509.509,0,0,0,5.4,3.732a.4.4,0,0,0,.128-.322A.438.438,0,0,0,5.419,3.1a.426.426,0,0,0-.325-.113.459.459,0,0,0-.315.111.368.368,0,0,0-.123.288H4.182a.726.726,0,0,1,.116-.4.786.786,0,0,1,.324-.28,1.058,1.058,0,0,1,.466-.1.98.98,0,0,1,.669.213A.752.752,0,0,1,6,3.41a.6.6,0,0,1-.122.361.765.765,0,0,1-.316.254.7.7,0,0,1,.357.252.687.687,0,0,1,.122.411.762.762,0,0,1-.263.609,1.017,1.017,0,0,1-.69.226,1.017,1.017,0,0,1-.672-.218.722.722,0,0,1-.262-.582h.475a.4.4,0,0,0,.126.3.479.479,0,0,0,.339.118.491.491,0,0,0,.347-.118.437.437,0,0,0,.127-.339.446.446,0,0,0-.132-.346.566.566,0,0,0-.395-.121H4.762Zm3.33.625V2.641H7.6L6.375,4.562l.014.29H7.617v.632h.475V4.852h.353V4.471Zm-.475,0H6.873l.709-1.125.035-.063Zm2.928-.405.4-.695h.528l-.647,1.041L11.5,5.484h-.523l-.422-.722-.42.722H9.6l.667-1.072L9.627,3.371h.523Zm2.012,0,.4-.695h.527L12.84,4.412l.668,1.072h-.524l-.422-.722-.419.722h-.528l.668-1.072-.644-1.041h.523Zm2.011,0,.4-.695H15.5l-.646,1.041.668,1.072H15l-.422-.722-.42.722h-.527L14.3,4.412,13.65,3.371h.524ZM16.578,0H0V8.484H20.154V0Zm2.776,7.684H17v-.2a1,1,0,1,0-2,0v.2H5v-.2a1,1,0,1,0-2,0v.2H.8V.8H3.025V1a1,1,0,0,0,2,0V.8h10.1V1a1,1,0,0,0,2,0V.8h2.225Z"/></svg>