<svg xmlns="http://www.w3.org/2000/svg" viewBox="0 0 64 64"><defs><style>.a{fill:none;stroke:#000;stroke-linejoin:round;stroke-width:2px;}</style></defs><title>icon_big_truck</title><polyline class="a" points="12.308 0.617 14.667 5.333 14.667 18.667"/><path class="a" d="M45.333,57.333v4a1.334,1.334,0,0,0,1.334,1.334H52a1.333,1.333,0,0,0,1.333-1.334V56"/><path class="a" d="M18.667,57.333v4a1.334,1.334,0,0,1-1.334,1.334H12a1.333,1.333,0,0,1-1.333-1.334V56"/><line class="a" x1="8" y1="48" x2="56" y2="48"/><path class="a" d="M49.333,18.667V37.333h4A2.667,2.667,0,0,1,56,40V54.667a2.667,2.667,0,0,1-2.667,2.666H10.667A2.667,2.667,0,0,1,8,54.667V40a2.667,2.667,0,0,1,2.667-2.667h4V18.667Z"/><line class="a" x1="13.333" y1="30.667" x2="21.333" y2="30.667"/><line class="a" x1="42.667" y1="30.667" x2="50.667" y2="30.667"/><line class="a" x1="17.333" y1="42.667" x2="12" y2="42.667"/><line class="a" x1="52" y1="42.667" x2="46.667" y2="42.667"/><path class="a" d="M14.667,18.667V13.333A5.333,5.333,0,0,1,20,8H44a5.333,5.333,0,0,1,5.333,5.333v5.334"/><line class="a" x1="32" y1="18.667" x2="32" y2="29.333"/><path class="a" d="M21.333,48V31.687a2.668,2.668,0,0,1,2.336-2.646l7.008-.876a10.746,10.746,0,0,1,2.646,0l7.008.876a2.668,2.668,0,0,1,2.336,2.646V48"/><line class="a" x1="26.667" y1="33.333" x2="26.667" y2="44"/><line class="a" x1="32" y1="33.333" x2="32" y2="44"/><line class="a" x1="37.333" y1="33.333" x2="37.333" y2="44"/><path class="a" d="M49.333,18.667h4A1.333,1.333,0,0,1,54.667,20v9.333a1.334,1.334,0,0,1-1.334,1.334h-4"/><path class="a" d="M14.667,18.667h-4A1.333,1.333,0,0,0,9.333,20v9.333a1.334,1.334,0,0,0,1.334,1.334h4"/><polyline class="a" points="51.692 0.617 49.333 5.333 49.333 18.667"/><line class="a" x1="30.667" y1="4" x2="33.333" y2="4"/><line class="a" x1="36" y1="4" x2="38.667" y2="4"/><line class="a" x1="25.333" y1="4" x2="28" y2="4"/></svg>